<?xml version="1.0" encoding="UTF-8" standalone="no"?>
<svg
   xmlns:dc="http://purl.org/dc/elements/1.1/"
   xmlns:cc="http://creativecommons.org/ns#"
   xmlns:rdf="http://www.w3.org/1999/02/22-rdf-syntax-ns#"
   xmlns:svg="http://www.w3.org/2000/svg"
   xmlns="http://www.w3.org/2000/svg"
   xmlns:sodipodi="http://sodipodi.sourceforge.net/DTD/sodipodi-0.dtd"
   xmlns:inkscape="http://www.inkscape.org/namespaces/inkscape"
   height="94.897156"
   width="95"
   version="1.1"
   x="0px"
   y="0px"
   viewBox="0 0 95 94.897157"
   style="fill:#000000"
   xml:space="preserve"
   id="svg8"
   sodipodi:docname="fignotavl_png.svg"
   inkscape:version="0.92.5 (2060ec1f9f, 2020-04-08)"><metadata
   id="metadata14"><rdf:RDF><cc:Work
       rdf:about=""><dc:format>image/svg+xml</dc:format><dc:type
         rdf:resource="http://purl.org/dc/dcmitype/StillImage" /><dc:title></dc:title></cc:Work></rdf:RDF></metadata><defs
   id="defs12" /><sodipodi:namedview
   pagecolor="#ffffff"
   bordercolor="#666666"
   borderopacity="1"
   objecttolerance="10"
   gridtolerance="10"
   guidetolerance="10"
   inkscape:pageopacity="0"
   inkscape:pageshadow="2"
   inkscape:window-width="1848"
   inkscape:window-height="1136"
   id="namedview10"
   showgrid="false"
   fit-margin-top="3"
   fit-margin-left="3"
   fit-margin-right="3"
   fit-margin-bottom="3"
   inkscape:zoom="4.7242931"
   inkscape:cx="8.7757642"
   inkscape:cy="50.650116"
   inkscape:current-layer="svg8"
   inkscape:window-x="72"
   inkscape:window-y="27"
   inkscape:window-maximized="1" /><style
   type="text/css"
   id="style2">
	.st0{fill:none;}
</style>
<rect
   style="opacity:1;fill:#e6e6e6;fill-opacity:1;stroke:none;stroke-width:0.14821048;stroke-linecap:square;stroke-linejoin:miter;stroke-miterlimit:4;stroke-dasharray:none;stroke-dashoffset:0;stroke-opacity:1;paint-order:markers fill stroke"
   id="rect966"
   width="89"
   height="88.897156"
   x="3"
   y="3" /><g
   id="g922"
   transform="matrix(0.39890006,0,0,0.40866396,32.448525,26.864509)"><path
     style="fill:#008080;stroke:#f9f9f9"
     sodipodi:nodetypes="acccsccsccccccccsssscccccccsccssccaacaaaacccssscccccscccccsccsccccccc"
     inkscape:connector-curvature="0"
     id="path6"
     d="m 47.903923,39.497965 c 0.574382,-2.43312 0.9,-5.1 0,-7.5 l 12.3,-6.7 c 1.2,1.2 2.7,2 4.6,2.2 h 0.5 c 1.7,0 3.3,-0.6 4.5,-1.7 1.4,-1.2 2.2,-2.9 2.4,-4.7 0.1,-1.8 -0.5,-3.6 -1.7,-5 -1.2,-1.4 -2.9,-2.2 -4.7,-2.4 -3.8,-0.3 -7.1,2.6 -7.4,6.4 v 0 c -0.1,0.9 0,1.7 0.3,2.5 l -12.3,6.7 c -0.6,-0.8 -1.4,-1.5 -2.3,-2.1 -1.3,-0.9 -2.8,-1.4 -4.2,-1.7 v -8.3 c 1.7,-0.4 3.2,-1.4 4.2,-2.9 1,-1.5 1.4,-3.4 1.1,-5.1999996 -0.3,-1.8 -1.4,-3.4 -2.9,-4.4 -1.5,-1 -3.4,-1.4 -5.2,-1.1 -1.8,0.3 -3.4,1.4 -4.4,2.9 -2.1,3.2 -1.3,7.4999996 1.9,9.5999996 0.7,0.5 1.5,0.8 2.3,1 v 8.3 c -2.5,0.4 -4.8,1.7 -6.5,3.8 l -12.3,-6.7 c 0.5,-1.6 0.4,-3.4 -0.4,-5 -0.8,-1.7 -2.2,-2.9 -4,-3.5 -1.8,-0.6 -3.599999,-0.5 -5.2999986,0.3 -3.4,1.7 -4.9,5.8 -3.2,9.3 1.2,2.5 3.7,3.9 6.2999986,3.9 1,0 2,-0.2 3,-0.7 0.8,-0.4 1.5,-0.9 2,-1.5 l 12.3,6.7 c -1,2.5 -0.627103,5.07993 0,7.5 0.258257,0.99665 0.861495,1.89234 1.5,2.7 0.643837,0.8144 1.4,1.5 2.3,2.1 1.3,0.9 2.722195,1.38823 4.2,1.7 1.044202,0.2203 2.165698,0.36288 3.2,0.1 2.432421,-0.61824 4.784287,-1.96827 6.5,-3.8 0.713353,-0.76159 1.160253,-1.78442 1.4,-2.8 z m 13.6,-19.1 v 0 c 0.1,-2.1 2,-3.6 4,-3.5 1,0.1 1.9,0.5 2.6,1.3 0.7,0.8 1,1.7 0.9,2.7 -0.1,1 -0.5,1.9 -1.3,2.6 -0.8,0.7 -1.7,1 -2.7,0.9 -2.1,-0.1 -3.6,-1.9 -3.5,-4 z m -48.5,3.6 c -1.9,0.9 -4.0999986,0.1 -4.9999986,-1.7 -0.9,-1.9 -0.1,-4.1 1.7,-5 0.4999996,-0.3 1.0999986,-0.4 1.5999986,-0.4 0.4,0 0.8,0.1 1.2,0.2 1,0.3 1.7,1 2.2,1.9 0.9,1.9 0.1,4.1 -1.7,5 z m 22.2,-15.5999996 c 0.6,-0.8 1.4,-1.4 2.4,-1.6 0.2,0 0.5,-0.1 0.7,-0.1 0.7,0 1.5,0.2 2.1,0.7 1.7,1.2 2.2,3.4999996 1,5.1999996 -0.6,0.8 -1.4,1.4 -2.4,1.6 -1,0.2 -2,0 -2.8,-0.6 -1.7,-1.2 -2.2,-3.5 -1,-5.1999996 z m -0.9,33.3999996 c -3.3,-2.2 -4.2,-6.7 -1.9,-10 2.2,-3.3 6.7,-4.2 10,-1.9 3.3,2.2 4.2,6.7 1.9,10 -2.3,3.2 -6.8,4.1 -10,1.9 z" /><rect
     ry="1"
     rx="1"
     y="57.500793"
     x="3.5"
     height="5"
     width="20"
     id="rect883"
     style="color:#000000;clip-rule:nonzero;display:inline;overflow:visible;visibility:visible;opacity:1;isolation:auto;mix-blend-mode:normal;color-interpolation:sRGB;color-interpolation-filters:linearRGB;solid-color:#000000;solid-opacity:1;vector-effect:none;fill:#008080;fill-opacity:0.78431373;fill-rule:nonzero;stroke:#f9f9f9;stroke-width:0.99999994;stroke-linecap:butt;stroke-linejoin:miter;stroke-miterlimit:4;stroke-dasharray:none;stroke-dashoffset:0;stroke-opacity:1;marker:none;paint-order:markers stroke fill;color-rendering:auto;image-rendering:auto;shape-rendering:auto;text-rendering:auto;enable-background:accumulate" /><rect
     style="color:#000000;clip-rule:nonzero;display:inline;overflow:visible;visibility:visible;opacity:1;isolation:auto;mix-blend-mode:normal;color-interpolation:sRGB;color-interpolation-filters:linearRGB;solid-color:#000000;solid-opacity:1;vector-effect:none;fill:#008080;fill-opacity:0.68627451;fill-rule:nonzero;stroke:#f9f9f9;stroke-width:0.99999994;stroke-linecap:butt;stroke-linejoin:miter;stroke-miterlimit:4;stroke-dasharray:none;stroke-dashoffset:0;stroke-opacity:1;marker:none;paint-order:markers stroke fill;color-rendering:auto;image-rendering:auto;shape-rendering:auto;text-rendering:auto;enable-background:accumulate"
     id="rect885"
     width="20"
     height="4"
     x="3.5"
     y="64.500778"
     rx="1.0000001"
     ry="1" /><rect
     ry="1"
     rx="1"
     y="70.500793"
     x="3.5"
     height="3"
     width="20"
     id="rect887"
     style="color:#000000;clip-rule:nonzero;display:inline;overflow:visible;visibility:visible;opacity:1;isolation:auto;mix-blend-mode:normal;color-interpolation:sRGB;color-interpolation-filters:linearRGB;solid-color:#000000;solid-opacity:1;vector-effect:none;fill:#008080;fill-opacity:0.58823529;fill-rule:nonzero;stroke:#f9f9f9;stroke-width:0.99999988;stroke-linecap:butt;stroke-linejoin:miter;stroke-miterlimit:4;stroke-dasharray:none;stroke-dashoffset:0;stroke-opacity:1;marker:none;paint-order:markers stroke fill;color-rendering:auto;image-rendering:auto;shape-rendering:auto;text-rendering:auto;enable-background:accumulate" /><rect
     style="color:#000000;clip-rule:nonzero;display:inline;overflow:visible;visibility:visible;opacity:1;isolation:auto;mix-blend-mode:normal;color-interpolation:sRGB;color-interpolation-filters:linearRGB;solid-color:#000000;solid-opacity:1;vector-effect:none;fill:#008080;fill-opacity:0.78431373;fill-rule:nonzero;stroke:#f9f9f9;stroke-width:0.99999994;stroke-linecap:butt;stroke-linejoin:miter;stroke-miterlimit:4;stroke-dasharray:none;stroke-dashoffset:0;stroke-opacity:1;marker:none;paint-order:markers stroke fill;color-rendering:auto;image-rendering:auto;shape-rendering:auto;text-rendering:auto;enable-background:accumulate"
     id="rect963"
     width="20"
     height="5"
     x="53.214676"
     y="57.500793"
     rx="1"
     ry="1" /><rect
     ry="1"
     rx="1.0000001"
     y="64.500778"
     x="53.214676"
     height="4"
     width="20"
     id="rect965"
     style="color:#000000;clip-rule:nonzero;display:inline;overflow:visible;visibility:visible;opacity:1;isolation:auto;mix-blend-mode:normal;color-interpolation:sRGB;color-interpolation-filters:linearRGB;solid-color:#000000;solid-opacity:1;vector-effect:none;fill:#008080;fill-opacity:0.68627451;fill-rule:nonzero;stroke:#f9f9f9;stroke-width:0.99999994;stroke-linecap:butt;stroke-linejoin:miter;stroke-miterlimit:4;stroke-dasharray:none;stroke-dashoffset:0;stroke-opacity:1;marker:none;paint-order:markers stroke fill;color-rendering:auto;image-rendering:auto;shape-rendering:auto;text-rendering:auto;enable-background:accumulate" /><rect
     style="color:#000000;clip-rule:nonzero;display:inline;overflow:visible;visibility:visible;opacity:1;isolation:auto;mix-blend-mode:normal;color-interpolation:sRGB;color-interpolation-filters:linearRGB;solid-color:#000000;solid-opacity:1;vector-effect:none;fill:#008080;fill-opacity:0.58823529;fill-rule:nonzero;stroke:#f9f9f9;stroke-width:0.99999988;stroke-linecap:butt;stroke-linejoin:miter;stroke-miterlimit:4;stroke-dasharray:none;stroke-dashoffset:0;stroke-opacity:1;marker:none;paint-order:markers stroke fill;color-rendering:auto;image-rendering:auto;shape-rendering:auto;text-rendering:auto;enable-background:accumulate"
     id="rect967"
     width="20"
     height="3"
     x="53.214676"
     y="70.500793"
     rx="1"
     ry="1" /><rect
     ry="1"
     rx="1"
     y="57.500793"
     x="28.357338"
     height="5"
     width="20"
     id="rect973"
     style="color:#000000;clip-rule:nonzero;display:inline;overflow:visible;visibility:visible;opacity:1;isolation:auto;mix-blend-mode:normal;color-interpolation:sRGB;color-interpolation-filters:linearRGB;solid-color:#000000;solid-opacity:1;vector-effect:none;fill:#008080;fill-opacity:0.78431373;fill-rule:nonzero;stroke:#f9f9f9;stroke-width:0.99999994;stroke-linecap:butt;stroke-linejoin:miter;stroke-miterlimit:4;stroke-dasharray:none;stroke-dashoffset:0;stroke-opacity:1;marker:none;paint-order:markers stroke fill;color-rendering:auto;image-rendering:auto;shape-rendering:auto;text-rendering:auto;enable-background:accumulate" /><rect
     style="color:#000000;clip-rule:nonzero;display:inline;overflow:visible;visibility:visible;opacity:1;isolation:auto;mix-blend-mode:normal;color-interpolation:sRGB;color-interpolation-filters:linearRGB;solid-color:#000000;solid-opacity:1;vector-effect:none;fill:#008080;fill-opacity:0.68627451;fill-rule:nonzero;stroke:#f9f9f9;stroke-width:0.99999994;stroke-linecap:butt;stroke-linejoin:miter;stroke-miterlimit:4;stroke-dasharray:none;stroke-dashoffset:0;stroke-opacity:1;marker:none;paint-order:markers stroke fill;color-rendering:auto;image-rendering:auto;shape-rendering:auto;text-rendering:auto;enable-background:accumulate"
     id="rect975"
     width="20"
     height="4"
     x="28.357338"
     y="64.500778"
     rx="1.0000001"
     ry="1" /><rect
     ry="1"
     rx="1"
     y="70.500793"
     x="28.357338"
     height="3"
     width="20"
     id="rect977"
     style="color:#000000;clip-rule:nonzero;display:inline;overflow:visible;visibility:visible;opacity:1;isolation:auto;mix-blend-mode:normal;color-interpolation:sRGB;color-interpolation-filters:linearRGB;solid-color:#000000;solid-opacity:1;vector-effect:none;fill:#008080;fill-opacity:0.58823529;fill-rule:nonzero;stroke:#f9f9f9;stroke-width:0.99999988;stroke-linecap:butt;stroke-linejoin:miter;stroke-miterlimit:4;stroke-dasharray:none;stroke-dashoffset:0;stroke-opacity:1;marker:none;paint-order:markers stroke fill;color-rendering:auto;image-rendering:auto;shape-rendering:auto;text-rendering:auto;enable-background:accumulate" /><rect
     style="color:#000000;clip-rule:nonzero;display:inline;overflow:visible;visibility:visible;opacity:1;isolation:auto;mix-blend-mode:normal;color-interpolation:sRGB;color-interpolation-filters:linearRGB;solid-color:#000000;solid-opacity:1;vector-effect:none;fill:#008080;fill-opacity:1;fill-rule:nonzero;stroke:#f9f9f9;stroke-width:0.99999994;stroke-linecap:butt;stroke-linejoin:miter;stroke-miterlimit:4;stroke-dasharray:none;stroke-dashoffset:0;stroke-opacity:1;marker:none;paint-order:markers stroke fill;color-rendering:auto;image-rendering:auto;shape-rendering:auto;text-rendering:auto;enable-background:accumulate"
     id="rect995"
     width="20"
     height="6"
     x="3.5"
     y="49.500793"
     rx="1"
     ry="1" /><rect
     ry="1"
     rx="1"
     y="49.500793"
     x="53.214676"
     height="6"
     width="20"
     id="rect997"
     style="color:#000000;clip-rule:nonzero;display:inline;overflow:visible;visibility:visible;opacity:1;isolation:auto;mix-blend-mode:normal;color-interpolation:sRGB;color-interpolation-filters:linearRGB;solid-color:#000000;solid-opacity:1;vector-effect:none;fill:#008080;fill-opacity:1;fill-rule:nonzero;stroke:#f9f9f9;stroke-width:0.99999994;stroke-linecap:butt;stroke-linejoin:miter;stroke-miterlimit:4;stroke-dasharray:none;stroke-dashoffset:0;stroke-opacity:1;marker:none;paint-order:markers stroke fill;color-rendering:auto;image-rendering:auto;shape-rendering:auto;text-rendering:auto;enable-background:accumulate" /><rect
     style="color:#000000;clip-rule:nonzero;display:inline;overflow:visible;visibility:visible;opacity:1;isolation:auto;mix-blend-mode:normal;color-interpolation:sRGB;color-interpolation-filters:linearRGB;solid-color:#000000;solid-opacity:1;vector-effect:none;fill:#008080;fill-opacity:1;fill-rule:nonzero;stroke:#f9f9f9;stroke-width:0.99999994;stroke-linecap:butt;stroke-linejoin:miter;stroke-miterlimit:4;stroke-dasharray:none;stroke-dashoffset:0;stroke-opacity:1;marker:none;paint-order:markers stroke fill;color-rendering:auto;image-rendering:auto;shape-rendering:auto;text-rendering:auto;enable-background:accumulate"
     id="rect999"
     width="20"
     height="6"
     x="28.357338"
     y="49.500793"
     rx="1"
     ry="1" /></g><g
   aria-label="Figure Not Available"
   style="font-style:normal;font-variant:normal;font-weight:normal;font-stretch:normal;font-size:10.66666698px;line-height:1.25;font-family:Arial;-inkscape-font-specification:Arial;letter-spacing:0px;word-spacing:0px;fill:#008080;fill-opacity:1;stroke:#f9f9f9;stroke-width:1.75748026;stroke-linecap:round;stroke-linejoin:bevel;stroke-miterlimit:4;stroke-dasharray:none;stroke-opacity:1;paint-order:stroke fill markers"
   id="text926"
   transform="matrix(0.30011703,0,0,0.30746301,36.741762,34.447929)"><path
     d="M -43.280071,98.698914 V 85.336935 h 9.014322 v 1.576823 h -7.246093 v 4.13802 h 6.270833 v 1.576823 h -6.270833 v 6.070313 z"
     style="font-size:18.66666603px;stroke:#f9f9f9;stroke-width:1.75748026;stroke-linecap:round;stroke-linejoin:bevel;stroke-miterlimit:4;stroke-dasharray:none;stroke-opacity:1;paint-order:stroke fill markers"
     id="path928"
     inkscape:connector-curvature="0" /><path
     d="m -32.169394,87.223654 v -1.886719 h 1.640625 v 1.886719 z m 0,11.47526 v -9.679688 h 1.640625 v 9.679688 z"
     style="font-size:18.66666603px;stroke:#f9f9f9;stroke-width:1.75748026;stroke-linecap:round;stroke-linejoin:bevel;stroke-miterlimit:4;stroke-dasharray:none;stroke-opacity:1;paint-order:stroke fill markers"
     id="path930"
     inkscape:connector-curvature="0" /><path
     d="m -28.332155,99.500997 1.595052,0.236979 q 0.10026,0.738284 0.555989,1.075524 0.610677,0.45573 1.667969,0.45573 1.139323,0 1.759115,-0.45573 0.619791,-0.45573 0.838541,-1.276045 0.127604,-0.501302 0.11849,-2.105468 -1.075521,1.266927 -2.679688,1.266927 -1.996093,0 -3.089843,-1.440105 -1.09375,-1.440104 -1.09375,-3.454427 0,-1.385416 0.501302,-2.552083 0.501302,-1.175781 1.449219,-1.813802 0.957031,-0.638021 2.242187,-0.638021 1.713542,0 2.825521,1.385417 v -1.166667 h 1.51302 v 8.367188 q 0,2.260416 -0.464843,3.199216 -0.455729,0.94792 -1.458334,1.49479 -0.993489,0.54688 -2.451822,0.54688 -1.731771,0 -2.798177,-0.78386 -1.066407,-0.77473 -1.029948,-2.342443 z m 1.358073,-5.815104 q 0,1.904948 0.75651,2.779948 0.75651,0.875 1.895833,0.875 1.130209,0 1.895834,-0.865886 0.765625,-0.875 0.765625,-2.734375 0,-1.777343 -0.792969,-2.679687 -0.783854,-0.902344 -1.895833,-0.902344 -1.09375,0 -1.859375,0.893229 -0.765625,0.884115 -0.765625,2.634115 z"
     style="font-size:18.66666603px;stroke:#f9f9f9;stroke-width:1.75748026;stroke-linecap:round;stroke-linejoin:bevel;stroke-miterlimit:4;stroke-dasharray:none;stroke-opacity:1;paint-order:stroke fill markers"
     id="path932"
     inkscape:connector-curvature="0" /><path
     d="m -11.306114,98.698914 v -1.421875 q -1.130209,1.640625 -3.071615,1.640625 -0.856771,0 -1.604167,-0.328125 -0.738281,-0.328125 -1.102864,-0.820313 -0.355469,-0.501302 -0.501302,-1.221354 -0.100261,-0.483073 -0.100261,-1.53125 v -5.997396 h 1.640625 v 5.36849 q 0,1.285156 0.100261,1.731771 0.154948,0.647135 0.65625,1.020833 0.501302,0.364583 1.239583,0.364583 0.738281,0 1.385417,-0.373698 0.647135,-0.382812 0.911458,-1.029948 0.273437,-0.65625 0.273437,-1.895833 v -5.186198 h 1.6406254 v 9.679688 z"
     style="font-size:18.66666603px;stroke:#f9f9f9;stroke-width:1.75748026;stroke-linecap:round;stroke-linejoin:bevel;stroke-miterlimit:4;stroke-dasharray:none;stroke-opacity:1;paint-order:stroke fill markers"
     id="path934"
     inkscape:connector-curvature="0" /><path
     d="m -7.2865817,98.698914 v -9.679688 h 1.4765624 v 1.467448 q 0.5651042,-1.029948 1.0390625,-1.358073 0.4830729,-0.328125 1.0572916,-0.328125 0.8294271,0 1.6861979,0.528646 l -0.5651042,1.522136 q -0.6015624,-0.355469 -1.2031249,-0.355469 -0.5377604,0 -0.9661458,0.328125 -0.4283854,0.31901 -0.6106771,0.893229 -0.2734375,0.875 -0.2734375,1.914062 v 5.067709 z"
     style="font-size:18.66666603px;stroke:#f9f9f9;stroke-width:1.75748026;stroke-linecap:round;stroke-linejoin:bevel;stroke-miterlimit:4;stroke-dasharray:none;stroke-opacity:1;paint-order:stroke fill markers"
     id="path936"
     inkscape:connector-curvature="0" /><path
     d="m 5.5740939,95.581726 1.6953124,0.209636 q -0.4010416,1.485677 -1.485677,2.305989 -1.0846354,0.820313 -2.7708333,0.820313 -2.1236978,0 -3.37239568,-1.303386 -1.23958332,-1.3125 -1.23958332,-3.673177 0,-2.442708 1.25781249,-3.791666 1.25781245,-1.348959 3.26302071,-1.348959 1.9414062,0 3.1718749,1.321615 1.2304687,1.321614 1.2304687,3.71875 0,0.145833 -0.00911,0.4375 H 0.09622947 q 0.09114583,1.595052 0.90234372,2.442708 0.81119791,0.847656 2.02343741,0.847656 0.9023437,0 1.5403646,-0.473958 0.6380208,-0.473958 1.0117187,-1.513021 z M 0.1873753,92.929383 H 5.592323 Q 5.482948,91.708028 4.9725314,91.097351 4.1886772,90.149435 2.9399794,90.149435 q -1.1302083,0 -1.9049479,0.75651 -0.76562495,0.75651 -0.8476562,2.023438 z"
     style="font-size:18.66666603px;stroke:#f9f9f9;stroke-width:1.75748026;stroke-linecap:round;stroke-linejoin:bevel;stroke-miterlimit:4;stroke-dasharray:none;stroke-opacity:1;paint-order:stroke fill markers"
     id="path938"
     inkscape:connector-curvature="0" /><path
     d="M 14.706905,98.698914 V 85.336935 h 1.813802 L 23.538936,95.82782 V 85.336935 h 1.695313 v 13.361979 h -1.813802 l -7.018229,-10.5 v 10.5 z"
     style="font-size:18.66666603px;stroke:#f9f9f9;stroke-width:1.75748026;stroke-linecap:round;stroke-linejoin:bevel;stroke-miterlimit:4;stroke-dasharray:none;stroke-opacity:1;paint-order:stroke fill markers"
     id="path940"
     inkscape:connector-curvature="0" /><path
     d="m 27.385291,93.85907 q 0,-2.688802 1.494791,-3.983073 1.248698,-1.075521 3.044271,-1.075521 1.996094,0 3.263021,1.3125 1.266927,1.303386 1.266927,3.609375 0,1.86849 -0.565104,2.944011 -0.55599,1.066406 -1.631511,1.658854 -1.066406,0.592448 -2.333333,0.592448 -2.032552,0 -3.290364,-1.303386 -1.248698,-1.303385 -1.248698,-3.755208 z m 1.686198,0 q 0,1.859375 0.811198,2.789062 0.811197,0.920573 2.041666,0.920573 1.221354,0 2.032552,-0.929687 0.811198,-0.929688 0.811198,-2.834636 0,-1.795572 -0.820312,-2.716145 -0.811198,-0.929688 -2.023438,-0.929688 -1.230469,0 -2.041666,0.920573 -0.811198,0.920573 -0.811198,2.779948 z"
     style="font-size:18.66666603px;stroke:#f9f9f9;stroke-width:1.75748026;stroke-linecap:round;stroke-linejoin:bevel;stroke-miterlimit:4;stroke-dasharray:none;stroke-opacity:1;paint-order:stroke fill markers"
     id="path942"
     inkscape:connector-curvature="0" /><path
     d="m 41.959507,97.231466 0.236979,1.449218 q -0.692708,0.145834 -1.239583,0.145834 -0.893229,0 -1.385417,-0.282552 -0.492187,-0.282552 -0.692708,-0.738282 -0.200521,-0.464843 -0.200521,-1.941406 v -5.56901 h -1.203125 v -1.276042 h 1.203125 v -2.397135 l 1.63151,-0.984375 v 3.38151 h 1.64974 v 1.276042 h -1.64974 v 5.660156 q 0,0.701823 0.08203,0.902344 0.09115,0.200521 0.282552,0.31901 0.20052,0.11849 0.565104,0.11849 0.273437,0 0.720052,-0.0638 z"
     style="font-size:18.66666603px;stroke:#f9f9f9;stroke-width:1.75748026;stroke-linecap:round;stroke-linejoin:bevel;stroke-miterlimit:4;stroke-dasharray:none;stroke-opacity:1;paint-order:stroke fill markers"
     id="path944"
     inkscape:connector-curvature="0" /><path
     d="m 46.462116,98.698914 5.13151,-13.361979 h 1.904948 l 5.46875,13.361979 h -2.014323 l -1.558593,-4.046875 h -5.58724 l -1.467448,4.046875 z m 3.855469,-5.486979 h 4.529948 l -1.394532,-3.700521 q -0.63802,-1.686198 -0.947916,-2.770833 -0.255209,1.285156 -0.720052,2.552083 z"
     style="font-size:18.66666603px;stroke:#f9f9f9;stroke-width:1.75748026;stroke-linecap:round;stroke-linejoin:bevel;stroke-miterlimit:4;stroke-dasharray:none;stroke-opacity:1;paint-order:stroke fill markers"
     id="path946"
     inkscape:connector-curvature="0" /><path
     d="m 62.522004,98.698914 -3.682291,-9.679688 h 1.731771 l 2.078124,5.796875 q 0.33724,0.938802 0.619792,1.950521 0.21875,-0.765625 0.610677,-1.841146 l 2.151042,-5.90625 h 1.686198 l -3.664063,9.679688 z"
     style="font-size:18.66666603px;stroke:#f9f9f9;stroke-width:1.75748026;stroke-linecap:round;stroke-linejoin:bevel;stroke-miterlimit:4;stroke-dasharray:none;stroke-opacity:1;paint-order:stroke fill markers"
     id="path948"
     inkscape:connector-curvature="0" /><path
     d="m 75.482944,97.504903 q -0.911458,0.77474 -1.759114,1.09375 -0.838542,0.319011 -1.804688,0.319011 -1.595052,0 -2.451823,-0.77474 -0.85677,-0.783854 -0.85677,-1.996094 0,-0.710937 0.31901,-1.29427 0.328125,-0.592448 0.847656,-0.947917 0.528646,-0.355469 1.184896,-0.53776 0.483073,-0.127605 1.458333,-0.246094 1.986979,-0.236979 2.925781,-0.565104 0.0091,-0.33724 0.0091,-0.428386 0,-1.002604 -0.464844,-1.41276 -0.628906,-0.55599 -1.868489,-0.55599 -1.157552,0 -1.713542,0.410157 -0.546875,0.401041 -0.811198,1.430989 l -1.604166,-0.21875 q 0.21875,-1.029948 0.720052,-1.658854 0.501302,-0.638021 1.449218,-0.97526 0.947917,-0.346355 2.196615,-0.346355 1.239583,0 2.014323,0.291667 0.774739,0.291667 1.139323,0.738281 0.364583,0.4375 0.510416,1.111979 0.08203,0.419271 0.08203,1.513021 v 2.1875 q 0,2.28776 0.10026,2.898438 0.109375,0.601562 0.419271,1.157552 h -1.713542 q -0.255208,-0.510417 -0.328125,-1.194011 z m -0.136719,-3.664062 q -0.893229,0.364583 -2.679687,0.619791 -1.011719,0.145834 -1.430989,0.328125 -0.419271,0.182292 -0.647136,0.537761 -0.227864,0.346354 -0.227864,0.774739 0,0.65625 0.492187,1.09375 0.501302,0.4375 1.458333,0.4375 0.947917,0 1.686198,-0.410156 0.738281,-0.419271 1.084636,-1.139323 0.264322,-0.555989 0.264322,-1.640625 z"
     style="font-size:18.66666603px;stroke:#f9f9f9;stroke-width:1.75748026;stroke-linecap:round;stroke-linejoin:bevel;stroke-miterlimit:4;stroke-dasharray:none;stroke-opacity:1;paint-order:stroke fill markers"
     id="path950"
     inkscape:connector-curvature="0" /><path
     d="m 79.557161,87.223654 v -1.886719 h 1.640625 v 1.886719 z m 0,11.47526 v -9.679688 h 1.640625 v 9.679688 z"
     style="font-size:18.66666603px;stroke:#f9f9f9;stroke-width:1.75748026;stroke-linecap:round;stroke-linejoin:bevel;stroke-miterlimit:4;stroke-dasharray:none;stroke-opacity:1;paint-order:stroke fill markers"
     id="path952"
     inkscape:connector-curvature="0" /><path
     d="M 83.658728,98.698914 V 85.336935 h 1.640625 v 13.361979 z"
     style="font-size:18.66666603px;stroke:#f9f9f9;stroke-width:1.75748026;stroke-linecap:round;stroke-linejoin:bevel;stroke-miterlimit:4;stroke-dasharray:none;stroke-opacity:1;paint-order:stroke fill markers"
     id="path954"
     inkscape:connector-curvature="0" /><path
     d="m 94.158725,97.504903 q -0.911458,0.77474 -1.759114,1.09375 -0.838542,0.319011 -1.804687,0.319011 -1.595053,0 -2.451823,-0.77474 -0.856771,-0.783854 -0.856771,-1.996094 0,-0.710937 0.31901,-1.29427 0.328125,-0.592448 0.847657,-0.947917 0.528645,-0.355469 1.184895,-0.53776 0.483073,-0.127605 1.458334,-0.246094 1.986979,-0.236979 2.925781,-0.565104 0.0091,-0.33724 0.0091,-0.428386 0,-1.002604 -0.464843,-1.41276 -0.628907,-0.55599 -1.86849,-0.55599 -1.157552,0 -1.713542,0.410157 -0.546875,0.401041 -0.811197,1.430989 l -1.604167,-0.21875 q 0.21875,-1.029948 0.720052,-1.658854 0.501302,-0.638021 1.449219,-0.97526 0.947916,-0.346355 2.196614,-0.346355 1.239584,0 2.014323,0.291667 0.77474,0.291667 1.139323,0.738281 0.364583,0.4375 0.510417,1.111979 0.08203,0.419271 0.08203,1.513021 v 2.1875 q 0,2.28776 0.10026,2.898438 0.109375,0.601562 0.419271,1.157552 H 94.48685 q -0.255208,-0.510417 -0.328125,-1.194011 z m -0.136718,-3.664062 q -0.893229,0.364583 -2.679688,0.619791 -1.011718,0.145834 -1.430989,0.328125 -0.419271,0.182292 -0.647136,0.537761 -0.227864,0.346354 -0.227864,0.774739 0,0.65625 0.492187,1.09375 0.501302,0.4375 1.458334,0.4375 0.947916,0 1.686197,-0.410156 0.738282,-0.419271 1.084636,-1.139323 0.264323,-0.555989 0.264323,-1.640625 z"
     style="font-size:18.66666603px;stroke:#f9f9f9;stroke-width:1.75748026;stroke-linecap:round;stroke-linejoin:bevel;stroke-miterlimit:4;stroke-dasharray:none;stroke-opacity:1;paint-order:stroke fill markers"
     id="path956"
     inkscape:connector-curvature="0" /><path
     d="M 99.736856,98.698914 H 98.21472 V 85.336935 h 1.640625 v 4.766927 q 1.039065,-1.303386 2.652345,-1.303386 0.89323,0 1.6862,0.364584 0.80208,0.355468 1.3125,1.011718 0.51953,0.647136 0.81119,1.567709 0.29167,0.920573 0.29167,1.96875 0,2.488281 -1.23047,3.846354 -1.23047,1.358073 -2.95312,1.358073 -1.71354,0 -2.688804,-1.43099 z m -0.01823,-4.912761 q 0,1.740886 0.473954,2.515625 0.77474,1.266927 2.09636,1.266927 1.07552,0 1.85937,-0.929687 0.78386,-0.938802 0.78386,-2.789063 0,-1.895833 -0.75651,-2.798177 -0.7474,-0.902343 -1.8138,-0.902343 -1.07553,0 -1.85938,0.938802 -0.783854,0.929687 -0.783854,2.697916 z"
     style="font-size:18.66666603px;stroke:#f9f9f9;stroke-width:1.75748026;stroke-linecap:round;stroke-linejoin:bevel;stroke-miterlimit:4;stroke-dasharray:none;stroke-opacity:1;paint-order:stroke fill markers"
     id="path958"
     inkscape:connector-curvature="0" /><path
     d="M 108.56888,98.698914 V 85.336935 h 1.64062 v 13.361979 z"
     style="font-size:18.66666603px;stroke:#f9f9f9;stroke-width:1.75748026;stroke-linecap:round;stroke-linejoin:bevel;stroke-miterlimit:4;stroke-dasharray:none;stroke-opacity:1;paint-order:stroke fill markers"
     id="path960"
     inkscape:connector-curvature="0" /><path
     d="m 119.37878,95.581726 1.69531,0.209636 q -0.40104,1.485677 -1.48568,2.305989 -1.08463,0.820313 -2.77083,0.820313 -2.1237,0 -3.3724,-1.303386 -1.23958,-1.3125 -1.23958,-3.673177 0,-2.442708 1.25781,-3.791666 1.25782,-1.348959 3.26302,-1.348959 1.94141,0 3.17188,1.321615 1.23047,1.321614 1.23047,3.71875 0,0.145833 -0.009,0.4375 h -7.21875 q 0.0911,1.595052 0.90235,2.442708 0.81119,0.847656 2.02343,0.847656 0.90235,0 1.54037,-0.473958 0.63802,-0.473958 1.01172,-1.513021 z m -5.38672,-2.652343 h 5.40495 q -0.10938,-1.221355 -0.61979,-1.832032 -0.78386,-0.947916 -2.03256,-0.947916 -1.13021,0 -1.90494,0.75651 -0.76563,0.75651 -0.84766,2.023438 z"
     style="font-size:18.66666603px;stroke:#f9f9f9;stroke-width:1.75748026;stroke-linecap:round;stroke-linejoin:bevel;stroke-miterlimit:4;stroke-dasharray:none;stroke-opacity:1;paint-order:stroke fill markers"
     id="path962"
     inkscape:connector-curvature="0" /></g></svg>