<?xml version="1.0" encoding="UTF-8" standalone="no"?>
<!-- Created with Inkscape (http://www.inkscape.org/) -->

<svg
   width="109.66204mm"
   height="79.237953mm"
   viewBox="0 0 109.66204 79.237957"
   version="1.1"
   id="svg1"
   inkscape:version="1.3.2 (1:1.3.2+202311252150+091e20ef0f)"
   sodipodi:docname="bedbase_web.svg"
   xml:space="preserve"
   xmlns:inkscape="http://www.inkscape.org/namespaces/inkscape"
   xmlns:sodipodi="http://sodipodi.sourceforge.net/DTD/sodipodi-0.dtd"
   xmlns="http://www.w3.org/2000/svg"
   xmlns:svg="http://www.w3.org/2000/svg"><sodipodi:namedview
     id="namedview1"
     pagecolor="#ffffff"
     bordercolor="#666666"
     borderopacity="1.0"
     inkscape:showpageshadow="2"
     inkscape:pageopacity="0.0"
     inkscape:pagecheckerboard="0"
     inkscape:deskcolor="#d1d1d1"
     inkscape:document-units="mm"
     inkscape:zoom="1.3469046"
     inkscape:cx="235.72568"
     inkscape:cy="139.5793"
     inkscape:window-width="1920"
     inkscape:window-height="1082"
     inkscape:window-x="0"
     inkscape:window-y="0"
     inkscape:window-maximized="1"
     inkscape:current-layer="layer1"
     showgrid="false"
     showguides="true" /><defs
     id="defs1"><rect
       x="194.19116"
       y="350.1478"
       width="39.2407"
       height="64.394997"
       id="rect5" /><inkscape:path-effect
       effect="bspline"
       id="path-effect1"
       is_visible="true"
       lpeversion="1.3"
       weight="33.333333"
       steps="2"
       helper_size="0"
       apply_no_weight="true"
       apply_with_weight="true"
       only_selected="false"
       uniform="false" /><marker
       inkscape:isstock="true"
       inkscape:stockid="Arrow1Lstart"
       orient="auto"
       refY="0"
       refX="0"
       id="Arrow1Lstart"
       style="overflow:visible"><path
         id="path7954"
         d="M 0,0 5,-5 -12.5,0 5,5 Z"
         style="fill-rule:evenodd;stroke:#000000;stroke-width:1pt"
         transform="matrix(0.8,0,0,0.8,10,0)"
         inkscape:connector-curvature="0" /></marker><rect
       id="rect46277"
       height="130.06619"
       width="68.661346"
       y="-79.116608"
       x="370.08374" /><rect
       id="rect2023"
       height="130.06619"
       width="68.661346"
       y="-79.116608"
       x="370.08374" /><linearGradient
       gradientTransform="matrix(0.01694567,0,0,0.011349,6.1920217,199.003)"
       id="gradientFill-1"
       x1="0.7414425"
       x2="590.86261"
       y1="3.6658268"
       y2="593.78699"
       gradientUnits="userSpaceOnUse"
       spreadMethod="pad"><stop
         offset="0"
         stop-color="rgb(203,206,208)"
         stop-opacity="1"
         id="stop2" /><stop
         offset="1"
         stop-color="rgb(132,131,139)"
         stop-opacity="1"
         id="stop4" /></linearGradient><linearGradient
       gradientTransform="matrix(0.01372841,0,0,0.01400864,6.1920217,199.003)"
       id="gradientFill-2"
       x1="301.02603"
       x2="703.0675"
       y1="151.4006"
       y2="553.44208"
       gradientUnits="userSpaceOnUse"
       spreadMethod="pad"><stop
         offset="0"
         stop-color="rgb(39,109,195)"
         stop-opacity="1"
         id="stop7" /><stop
         offset="1"
         stop-color="rgb(22,92,170)"
         stop-opacity="1"
         id="stop9" /></linearGradient><inkscape:path-effect
       effect="bspline"
       id="path-effect1-6"
       is_visible="true"
       lpeversion="1.3"
       weight="33.333333"
       steps="2"
       helper_size="0"
       apply_no_weight="true"
       apply_with_weight="true"
       only_selected="false"
       uniform="false" /><clipPath
       id="clip1879"><path
         d="M 0.05222222,0 H 31.163567 c 0.02882,0 0.05222,0.02339999 0.05222,0.05222222 v 0.05222222 c 0,0 0,0 0,0 H 0 c 0,0 0,0 0,0 V 0.05222222 C 0,0.02339999 0.02339999,0 0.05222222,0 Z"
         id="path234" /></clipPath><clipPath
       id="clip1880"><path
         d="M 0.25444444,0 H 30.961345 c 0.140432,0 0.254444,0.11401273 0.254444,0.25444444 v 0.25444445 c 0,0 0,0 0,0 H 0 c 0,0 0,0 0,0 V 0.25444444 C 0,0.11401273 0.11401273,0 0.25444444,0 Z"
         id="path235" /></clipPath><clipPath
       id="clip1881"><path
         d="M 0.94111111,0 H 30.274678 c 0.519414,0 0.941111,0.42169775 0.941111,0.94111111 V 1.8822222 c 0,0 0,0 0,0 H 0 c 0,0 0,0 0,0 V 0.94111111 C 0,0.42169775 0.42169775,0 0.94111111,0 Z"
         id="path236" /></clipPath><clipPath
       id="clip1882"><path
         d="m 1.5,0 h 28.215789 c 0.827873,0 1.5,0.67212746 1.5,1.5 v 4.3111111 c 0,0 0,0 0,0 H 0 c 0,0 0,0 0,0 V 1.5 C 0,0.67212746 0.67212746,0 1.5,0 Z"
         id="path237" /></clipPath><clipPath
       id="clip1883"><path
         d="m 1.5,0 h 28.215789 c 0.827873,0 1.5,0.67212746 1.5,1.5 v 14.817778 c 0,0 0,0 0,0 H 0 c 0,0 0,0 0,0 V 1.5 C 0,0.67212746 0.67212746,0 1.5,0 Z"
         id="path238" /></clipPath><clipPath
       id="clip1884"><path
         d="m 1.5,0 h 28.215789 c 0.827873,0 1.5,0.67212746 1.5,1.5 v 29.697778 c 0,0 0,0 0,0 H 0 c 0,0 0,0 0,0 V 1.5 C 0,0.67212746 0.67212746,0 1.5,0 Z"
         id="path239" /></clipPath><clipPath
       id="clip1885"><path
         d="m 1.5,0 h 28.215789 c 0.827873,0 1.5,0.67212746 1.5,1.5 v 36.493333 c 0,0 0,0 0,0 H 0 c 0,0 0,0 0,0 V 1.5 C 0,0.67212746 0.67212746,0 1.5,0 Z"
         id="path240" /></clipPath><clipPath
       id="clip1886"><path
         d="m 1.5,0 h 28.215789 c 0.827873,0 1.5,0.67212746 1.5,1.5 v 43.595556 c 0,0 0,0 0,0 H 0 c 0,0 0,0 0,0 V 1.5 C 0,0.67212746 0.67212746,0 1.5,0 Z"
         id="path241" /></clipPath><clipPath
       id="clip1887"><path
         d="m 1.5,0 h 28.215789 c 0.827873,0 1.5,0.67212746 1.5,1.5 v 53.173333 c 0,0 0,0 0,0 H 0 c 0,0 0,0 0,0 V 1.5 C 0,0.67212746 0.67212746,0 1.5,0 Z"
         id="path242" /></clipPath><clipPath
       id="clip1888"><path
         d="m 1.5,0 h 28.215789 c 0.827873,0 1.5,0.67212746 1.5,1.5 v 77.608889 c 0,0 0,0 0,0 H 0 c 0,0 0,0 0,0 V 1.5 C 0,0.67212746 0.67212746,0 1.5,0 Z"
         id="path243" /></clipPath><clipPath
       id="clip1889"><path
         d="m 1.5,0 h 28.215789 c 0.827873,0 1.5,0.67212746 1.5,1.5 v 103.11333 c 0,0 0,0 0,0 H 0 c 0,0 0,0 0,0 V 1.5 C 0,0.67212746 0.67212746,0 1.5,0 Z"
         id="path244" /></clipPath><clipPath
       id="clip1890"><path
         d="m 1.5,0 h 28.215789 c 0.827873,0 1.5,0.67212746 1.5,1.5 v 120.94444 c 0,0 0,0 0,0 H 0 c 0,0 0,0 0,0 V 1.5 C 0,0.67212746 0.67212746,0 1.5,0 Z"
         id="path245" /></clipPath><clipPath
       id="clip1891"><path
         d="m 1.5,0 h 28.215789 c 0.827873,0 1.5,0.67212746 1.5,1.5 v 152.34889 c 0,0 0,0 0,0 H 0 c 0,0 0,0 0,0 V 1.5 C 0,0.67212746 0.67212746,0 1.5,0 Z"
         id="path246" /></clipPath><clipPath
       id="clip1892"><path
         d="m 1.5,0 h 28.215789 c 0.827873,0 1.5,0.67212746 1.5,1.5 v 176.26667 c 0,0 0,0 0,0 H 0 c 0,0 0,0 0,0 V 1.5 C 0,0.67212746 0.67212746,0 1.5,0 Z"
         id="path247" /></clipPath><clipPath
       id="clip1893"><path
         d="m 1.5,0 h 28.215789 c 0.827873,0 1.5,0.67212746 1.5,1.5 v 223.22 c 0,0 0,0 0,0 H 0 c 0,0 0,0 0,0 V 1.5 C 0,0.67212746 0.67212746,0 1.5,0 Z"
         id="path248" /></clipPath><clipPath
       id="clip1894"><path
         d="m 1.5,0 h 28.215789 c 0.827873,0 1.5,0.67212746 1.5,1.5 v 270.18667 c 0,0 0,0 0,0 H 0 c 0,0 0,0 0,0 V 1.5 C 0,0.67212746 0.67212746,0 1.5,0 Z"
         id="path249" /></clipPath><clipPath
       id="clip1895"><path
         d="m 1.5,0 h 28.215789 c 0.827873,0 1.5,0.67212746 1.5,1.5 v 308.35556 c 0,0 0,0 0,0 H 0 c 0,0 0,0 0,0 V 1.5 C 0,0.67212746 0.67212746,0 1.5,0 Z"
         id="path250" /></clipPath><clipPath
       id="clip1896"><path
         d="m 1.5,0 h 28.215789 c 0.827873,0 1.5,0.67212746 1.5,1.5 v 349.16444 c 0,0 0,0 0,0 H 0 c 0,0 0,0 0,0 V 1.5 C 0,0.67212746 0.67212746,0 1.5,0 Z"
         id="path251" /></clipPath><clipPath
       id="clip1897"><path
         d="m 1.5,0 h 28.215789 c 0.827873,0 1.5,0.67212746 1.5,1.5 v 358.34444 c 0,0 0,0 0,0 H 0 c 0,0 0,0 0,0 V 1.5 C 0,0.67212746 0.67212746,0 1.5,0 Z"
         id="path252" /></clipPath><style
       type="text/css"
       id="style6">
   
    .fil1 {fill:none}
    .fil0 {fill:black}
   
  </style><clipPath
       clipPathUnits="userSpaceOnUse"
       id="clipPath3250"><path
         d="M 0,512 H 512 V 0 H 0 Z"
         id="path3248" /></clipPath><marker
       style="overflow:visible"
       id="TriangleOutM-7"
       refX="0"
       refY="0"
       orient="auto"
       inkscape:stockid="TriangleOutM"
       viewBox="0 0 3.9933067 4.5332943"
       markerWidth="3.9933066"
       markerHeight="4.5332942"
       preserveAspectRatio="xMidYMid"><path
         inkscape:connector-curvature="0"
         transform="scale(0.4)"
         style="fill-rule:evenodd;stroke:#000000;stroke-width:1pt"
         d="M 5.77,0 -2.88,5 V -5 Z"
         id="path4156-4" /></marker><marker
       style="overflow:visible"
       id="TriangleOutM-7-5"
       refX="0"
       refY="0"
       orient="auto"
       inkscape:stockid="TriangleOutM"
       viewBox="0 0 3.9933067 4.5332943"
       markerWidth="3.9933066"
       markerHeight="4.5332942"
       preserveAspectRatio="xMidYMid"><path
         inkscape:connector-curvature="0"
         transform="scale(0.4)"
         style="fill-rule:evenodd;stroke:#000000;stroke-width:1pt"
         d="M 5.77,0 -2.88,5 V -5 Z"
         id="path4156-4-7" /></marker><marker
       style="overflow:visible"
       id="TriangleOutM-7-3"
       refX="0"
       refY="0"
       orient="auto"
       inkscape:stockid="TriangleOutM"
       viewBox="0 0 3.9933067 4.5332943"
       markerWidth="3.9933066"
       markerHeight="4.5332942"
       preserveAspectRatio="xMidYMid"><path
         inkscape:connector-curvature="0"
         transform="scale(0.4)"
         style="fill-rule:evenodd;stroke:#000000;stroke-width:1pt"
         d="M 5.77,0 -2.88,5 V -5 Z"
         id="path4156-4-6" /></marker><style
       id="style1">.cls-1{fill:none;stroke:#000000;stroke-miterlimit:10;stroke-width:2px;}</style><rect
       x="194.19116"
       y="350.1478"
       width="39.2407"
       height="64.394997"
       id="rect5-5" /><inkscape:path-effect
       effect="bspline"
       id="path-effect1-3"
       is_visible="true"
       lpeversion="1.3"
       weight="33.333333"
       steps="2"
       helper_size="0"
       apply_no_weight="true"
       apply_with_weight="true"
       only_selected="false"
       uniform="false" /><marker
       inkscape:isstock="true"
       inkscape:stockid="Arrow1Lstart"
       orient="auto"
       refY="0"
       refX="0"
       id="Arrow1Lstart-5"
       style="overflow:visible"><path
         id="path7954-6"
         d="M 0,0 5,-5 -12.5,0 5,5 Z"
         style="fill-rule:evenodd;stroke:#000000;stroke-width:1pt"
         transform="matrix(0.8,0,0,0.8,10,0)"
         inkscape:connector-curvature="0" /></marker><rect
       id="rect46277-2"
       height="130.06619"
       width="68.661346"
       y="-79.116608"
       x="370.08374" /><rect
       id="rect2023-9"
       height="130.06619"
       width="68.661346"
       y="-79.116608"
       x="370.08374" /><inkscape:path-effect
       effect="bspline"
       id="path-effect1-6-9"
       is_visible="true"
       lpeversion="1.3"
       weight="33.333333"
       steps="2"
       helper_size="0"
       apply_no_weight="true"
       apply_with_weight="true"
       only_selected="false"
       uniform="false" /><clipPath
       id="clip1879-3"><path
         d="M 0.05222222,0 H 31.163567 c 0.02882,0 0.05222,0.02339999 0.05222,0.05222222 v 0.05222222 c 0,0 0,0 0,0 H 0 c 0,0 0,0 0,0 V 0.05222222 C 0,0.02339999 0.02339999,0 0.05222222,0 Z"
         id="path234-6" /></clipPath><clipPath
       id="clip1880-0"><path
         d="M 0.25444444,0 H 30.961345 c 0.140432,0 0.254444,0.11401273 0.254444,0.25444444 v 0.25444445 c 0,0 0,0 0,0 H 0 c 0,0 0,0 0,0 V 0.25444444 C 0,0.11401273 0.11401273,0 0.25444444,0 Z"
         id="path235-6" /></clipPath><clipPath
       id="clip1881-2"><path
         d="M 0.94111111,0 H 30.274678 c 0.519414,0 0.941111,0.42169775 0.941111,0.94111111 V 1.8822222 c 0,0 0,0 0,0 H 0 c 0,0 0,0 0,0 V 0.94111111 C 0,0.42169775 0.42169775,0 0.94111111,0 Z"
         id="path236-6" /></clipPath><clipPath
       id="clip1882-1"><path
         d="m 1.5,0 h 28.215789 c 0.827873,0 1.5,0.67212746 1.5,1.5 v 4.3111111 c 0,0 0,0 0,0 H 0 c 0,0 0,0 0,0 V 1.5 C 0,0.67212746 0.67212746,0 1.5,0 Z"
         id="path237-8" /></clipPath><clipPath
       id="clip1883-7"><path
         d="m 1.5,0 h 28.215789 c 0.827873,0 1.5,0.67212746 1.5,1.5 v 14.817778 c 0,0 0,0 0,0 H 0 c 0,0 0,0 0,0 V 1.5 C 0,0.67212746 0.67212746,0 1.5,0 Z"
         id="path238-9" /></clipPath><clipPath
       id="clip1884-2"><path
         d="m 1.5,0 h 28.215789 c 0.827873,0 1.5,0.67212746 1.5,1.5 v 29.697778 c 0,0 0,0 0,0 H 0 c 0,0 0,0 0,0 V 1.5 C 0,0.67212746 0.67212746,0 1.5,0 Z"
         id="path239-0" /></clipPath><clipPath
       id="clip1885-2"><path
         d="m 1.5,0 h 28.215789 c 0.827873,0 1.5,0.67212746 1.5,1.5 v 36.493333 c 0,0 0,0 0,0 H 0 c 0,0 0,0 0,0 V 1.5 C 0,0.67212746 0.67212746,0 1.5,0 Z"
         id="path240-3" /></clipPath><clipPath
       id="clip1886-7"><path
         d="m 1.5,0 h 28.215789 c 0.827873,0 1.5,0.67212746 1.5,1.5 v 43.595556 c 0,0 0,0 0,0 H 0 c 0,0 0,0 0,0 V 1.5 C 0,0.67212746 0.67212746,0 1.5,0 Z"
         id="path241-5" /></clipPath><clipPath
       id="clip1887-9"><path
         d="m 1.5,0 h 28.215789 c 0.827873,0 1.5,0.67212746 1.5,1.5 v 53.173333 c 0,0 0,0 0,0 H 0 c 0,0 0,0 0,0 V 1.5 C 0,0.67212746 0.67212746,0 1.5,0 Z"
         id="path242-2" /></clipPath><clipPath
       id="clip1888-2"><path
         d="m 1.5,0 h 28.215789 c 0.827873,0 1.5,0.67212746 1.5,1.5 v 77.608889 c 0,0 0,0 0,0 H 0 c 0,0 0,0 0,0 V 1.5 C 0,0.67212746 0.67212746,0 1.5,0 Z"
         id="path243-8" /></clipPath><clipPath
       id="clip1889-9"><path
         d="m 1.5,0 h 28.215789 c 0.827873,0 1.5,0.67212746 1.5,1.5 v 103.11333 c 0,0 0,0 0,0 H 0 c 0,0 0,0 0,0 V 1.5 C 0,0.67212746 0.67212746,0 1.5,0 Z"
         id="path244-7" /></clipPath><clipPath
       id="clip1890-3"><path
         d="m 1.5,0 h 28.215789 c 0.827873,0 1.5,0.67212746 1.5,1.5 v 120.94444 c 0,0 0,0 0,0 H 0 c 0,0 0,0 0,0 V 1.5 C 0,0.67212746 0.67212746,0 1.5,0 Z"
         id="path245-6" /></clipPath><clipPath
       id="clip1891-1"><path
         d="m 1.5,0 h 28.215789 c 0.827873,0 1.5,0.67212746 1.5,1.5 v 152.34889 c 0,0 0,0 0,0 H 0 c 0,0 0,0 0,0 V 1.5 C 0,0.67212746 0.67212746,0 1.5,0 Z"
         id="path246-2" /></clipPath><clipPath
       id="clip1892-9"><path
         d="m 1.5,0 h 28.215789 c 0.827873,0 1.5,0.67212746 1.5,1.5 v 176.26667 c 0,0 0,0 0,0 H 0 c 0,0 0,0 0,0 V 1.5 C 0,0.67212746 0.67212746,0 1.5,0 Z"
         id="path247-3" /></clipPath><clipPath
       id="clip1893-1"><path
         d="m 1.5,0 h 28.215789 c 0.827873,0 1.5,0.67212746 1.5,1.5 v 223.22 c 0,0 0,0 0,0 H 0 c 0,0 0,0 0,0 V 1.5 C 0,0.67212746 0.67212746,0 1.5,0 Z"
         id="path248-9" /></clipPath><clipPath
       id="clip1894-4"><path
         d="m 1.5,0 h 28.215789 c 0.827873,0 1.5,0.67212746 1.5,1.5 v 270.18667 c 0,0 0,0 0,0 H 0 c 0,0 0,0 0,0 V 1.5 C 0,0.67212746 0.67212746,0 1.5,0 Z"
         id="path249-7" /></clipPath><clipPath
       id="clip1895-8"><path
         d="m 1.5,0 h 28.215789 c 0.827873,0 1.5,0.67212746 1.5,1.5 v 308.35556 c 0,0 0,0 0,0 H 0 c 0,0 0,0 0,0 V 1.5 C 0,0.67212746 0.67212746,0 1.5,0 Z"
         id="path250-4" /></clipPath><clipPath
       id="clip1896-5"><path
         d="m 1.5,0 h 28.215789 c 0.827873,0 1.5,0.67212746 1.5,1.5 v 349.16444 c 0,0 0,0 0,0 H 0 c 0,0 0,0 0,0 V 1.5 C 0,0.67212746 0.67212746,0 1.5,0 Z"
         id="path251-0" /></clipPath><clipPath
       id="clip1897-3"><path
         d="m 1.5,0 h 28.215789 c 0.827873,0 1.5,0.67212746 1.5,1.5 v 358.34444 c 0,0 0,0 0,0 H 0 c 0,0 0,0 0,0 V 1.5 C 0,0.67212746 0.67212746,0 1.5,0 Z"
         id="path252-6" /></clipPath><style
       type="text/css"
       id="style6-1">
   
    .fil1 {fill:none}
    .fil0 {fill:black}
   
  </style><clipPath
       clipPathUnits="userSpaceOnUse"
       id="clipPath3250-0"><path
         d="M 0,512 H 512 V 0 H 0 Z"
         id="path3248-6" /></clipPath><marker
       style="overflow:visible"
       id="TriangleOutM-7-32"
       refX="0"
       refY="0"
       orient="auto"
       inkscape:stockid="TriangleOutM"
       viewBox="0 0 3.9933067 4.5332943"
       markerWidth="3.9933066"
       markerHeight="4.5332942"
       preserveAspectRatio="xMidYMid"><path
         inkscape:connector-curvature="0"
         transform="scale(0.4)"
         style="fill-rule:evenodd;stroke:#000000;stroke-width:1pt"
         d="M 5.77,0 -2.88,5 V -5 Z"
         id="path4156-4-0" /></marker><marker
       style="overflow:visible"
       id="TriangleOutM-7-5-6"
       refX="0"
       refY="0"
       orient="auto"
       inkscape:stockid="TriangleOutM"
       viewBox="0 0 3.9933067 4.5332943"
       markerWidth="3.9933066"
       markerHeight="4.5332942"
       preserveAspectRatio="xMidYMid"><path
         inkscape:connector-curvature="0"
         transform="scale(0.4)"
         style="fill-rule:evenodd;stroke:#000000;stroke-width:1pt"
         d="M 5.77,0 -2.88,5 V -5 Z"
         id="path4156-4-7-1" /></marker><marker
       style="overflow:visible"
       id="TriangleOutM-7-3-5"
       refX="0"
       refY="0"
       orient="auto"
       inkscape:stockid="TriangleOutM"
       viewBox="0 0 3.9933067 4.5332943"
       markerWidth="3.9933066"
       markerHeight="4.5332942"
       preserveAspectRatio="xMidYMid"><path
         inkscape:connector-curvature="0"
         transform="scale(0.4)"
         style="fill-rule:evenodd;stroke:#000000;stroke-width:1pt"
         d="M 5.77,0 -2.88,5 V -5 Z"
         id="path4156-4-6-5" /></marker><style
       id="style1-4">.cls-1{fill:none;stroke:#000000;stroke-miterlimit:10;stroke-width:2px;}</style></defs><g
     inkscape:label="Layer 1"
     inkscape:groupmode="layer"
     id="layer1"
     transform="translate(-96.259217,53.092839)"><g
       id="g4468"
       transform="translate(14.794138,42.356266)" /><path
       class="foreground"
       aria-hidden="true"
       d=""
       display="none"
       id="path231"
       style="fill:none;stroke-width:0.116891;stroke-miterlimit:10" /><path
       class="foreground"
       aria-hidden="true"
       d=""
       pointer-events="none"
       display="none"
       id="path53"
       style="fill:none;stroke-width:0.133963;stroke-miterlimit:10" /><path
       class="foreground"
       aria-hidden="true"
       d=""
       pointer-events="none"
       display="none"
       id="path76"
       style="fill:none;stroke-width:0.133963;stroke-miterlimit:10" /><text
       xml:space="preserve"
       transform="scale(0.26458333)"
       id="text4"
       style="font-size:8px;line-height:1;font-family:Arial;-inkscape-font-specification:Arial;white-space:pre;shape-inside:url(#rect5);display:inline" /><g
       style="clip-rule:evenodd;fill-rule:evenodd;image-rendering:optimizeQuality;shape-rendering:geometricPrecision;text-rendering:geometricPrecision"
       id="g3-8"
       transform="matrix(0.26458333,0,0,0.26458333,0.62355758,156.93085)" /><g
       id="g10"
       transform="matrix(2.0988908,0,0,2.0988908,-94.938605,-332.10432)"><path
         style="fill:none;stroke:#000000;stroke-width:0.334437px;stroke-linecap:butt;stroke-linejoin:miter;stroke-opacity:1;marker-end:url(#TriangleOutM-7-3)"
         d="m 22.47023,169.90716 8.254423,-0.0327"
         id="path105-5-3"
         sodipodi:nodetypes="cc" /><path
         style="color:#000000;text-indent:0;text-transform:none;direction:ltr;baseline-shift:baseline;stroke-width:0.0394673;stroke-linecap:butt;stroke-linejoin:round;enable-background:accumulate"
         d="m 25.450669,168.34242 c -0.06489,-0.1124 -0.02576,-0.25857 0.08668,-0.32349 l 0.142055,-0.082 c -0.0091,-0.0485 -0.01638,-0.0972 -0.02037,-0.14628 l -0.158357,-0.0424 c -0.125404,-0.0336 -0.200717,-0.16406 -0.167117,-0.28946 l 0.122341,-0.45657 c 0.03359,-0.12541 0.165127,-0.20136 0.290527,-0.16774 l 0.158356,0.0424 c 0.02816,-0.0407 0.05792,-0.0798 0.09023,-0.11753 l -0.08202,-0.14205 c -0.06489,-0.11241 -0.02575,-0.25858 0.08668,-0.32349 l 0.410157,-0.2368 c 0.112431,-0.0649 0.258566,-0.0258 0.323489,0.0867 l 0.08263,0.14313 c 0.04803,-0.009 0.09667,-0.0157 0.145251,-0.0197 l 0.04246,-0.15834 c 0.03359,-0.12541 0.165127,-0.20135 0.290528,-0.16773 l 0.456575,0.12233 c 0.125405,0.0336 0.200722,0.16408 0.167118,0.28946 l -0.04246,0.15834 c 0.04053,0.0279 0.07906,0.0586 0.116499,0.0908 l 0.143125,-0.0826 c 0.11243,-0.0649 0.258565,-0.0258 0.323488,0.0867 l 0.236806,0.41016 c 0.06489,0.1124 0.02575,0.25857 -0.08668,0.32348 l -0.143124,0.0826 c 0.009,0.0483 0.01584,0.0965 0.01973,0.14518 l 0.158357,0.0424 c 0.125405,0.0336 0.200722,0.16408 0.167118,0.28946 l -0.121724,0.45764 c -0.03359,0.12542 -0.165127,0.20136 -0.290528,0.16774 l -0.160061,-0.0429 c -0.02719,0.0397 -0.0565,0.079 -0.08808,0.1163 l 0.08264,0.14313 c 0.06489,0.1124 0.02575,0.25856 -0.08668,0.32347 l -0.410157,0.23681 c -0.112441,0.0649 -0.258565,0.0258 -0.323477,-0.0867 l -0.08263,-0.14313 c -0.04869,0.009 -0.09725,0.0151 -0.145827,0.0187 l -0.04289,0.16006 c -0.03359,0.1254 -0.165126,0.20135 -0.290527,0.16774 l -0.457193,-0.12341 c -0.125404,-0.0336 -0.200727,-0.16406 -0.167118,-0.28945 l 0.04246,-0.15834 c -0.04016,-0.0277 -0.0786,-0.0579 -0.115858,-0.0897 l -0.142065,0.082 c -0.112431,0.0649 -0.258565,0.0258 -0.323478,-0.0867 z m 0.136716,-0.0789 0.236805,0.41016 c 0.02253,0.039 0.06878,0.0514 0.107814,0.0289 l 0.187987,-0.10853 c 0.02889,-0.0167 0.06841,-0.0122 0.09293,0.0105 0.05887,0.0547 0.121262,0.1035 0.187743,0.14509 0.02828,0.0177 0.04302,0.0547 0.03448,0.0869 l -0.05598,0.20892 c -0.01168,0.0436 0.01255,0.0855 0.0561,0.0972 l 0.457193,0.1234 c 0.04355,0.0117 0.08444,-0.0119 0.09612,-0.0555 l 0.05643,-0.2106 c 0.0083,-0.0329 0.03983,-0.0585 0.07374,-0.0597 0.0792,-0.003 0.1578,-0.0113 0.235319,-0.029 0.03292,-0.008 0.06977,0.008 0.08677,0.0368 l 0.108541,0.18799 c 0.02252,0.039 0.06878,0.0514 0.107814,0.0289 l 0.410157,-0.2368 c 0.03905,-0.0225 0.0514,-0.0688 0.0289,-0.10781 l -0.10854,-0.18799 c -0.01665,-0.0288 -0.01218,-0.0684 0.01044,-0.0929 0.05414,-0.0582 0.101785,-0.12273 0.143871,-0.18989 0.01803,-0.0281 0.05555,-0.0419 0.08755,-0.0334 l 0.210599,0.0564 c 0.04355,0.0117 0.08444,-0.0119 0.09612,-0.0555 l 0.121728,-0.45765 c 0.01168,-0.0436 -0.01255,-0.0855 -0.0561,-0.0972 l -0.208913,-0.056 c -0.03212,-0.009 -0.05684,-0.04 -0.05804,-0.0733 -0.0028,-0.0784 -0.01387,-0.15681 -0.03178,-0.23514 -0.0074,-0.033 0.009,-0.0698 0.03844,-0.0863 l 0.187986,-0.10854 c 0.03905,-0.0225 0.05141,-0.0688 0.0289,-0.10781 l -0.236806,-0.41016 c -0.02252,-0.039 -0.06879,-0.0514 -0.107814,-0.0289 l -0.187986,0.10854 c -0.02901,0.0173 -0.06917,0.0131 -0.09399,-0.01 -0.05925,-0.0551 -0.121778,-0.10452 -0.188359,-0.14616 -0.02828,-0.0177 -0.04294,-0.0546 -0.03448,-0.0869 l 0.05598,-0.20892 c 0.01168,-0.0436 -0.01255,-0.0855 -0.0561,-0.0972 l -0.456587,-0.12234 c -0.04355,-0.0117 -0.08444,0.0119 -0.09612,0.0555 l -0.05598,0.20892 c -0.0089,0.0321 -0.03996,0.0568 -0.07303,0.0585 -0.07848,0.003 -0.157354,0.0143 -0.23618,0.0325 -0.03255,0.007 -0.06898,-0.009 -0.08569,-0.0374 l -0.10853,-0.18798 c -0.02252,-0.039 -0.06879,-0.0514 -0.107814,-0.0289 l -0.410154,0.2368 c -0.03905,0.0226 -0.0514,0.0688 -0.0289,0.10781 l 0.108531,0.18798 c 0.01646,0.0294 0.0117,0.0692 -0.01151,0.0935 -0.0551,0.0593 -0.103417,0.12122 -0.145141,0.18768 -0.01765,0.0288 -0.05552,0.0435 -0.08826,0.0346 l -0.208915,-0.056 c -0.04355,-0.0117 -0.08444,0.0119 -0.09612,0.0555 l -0.122335,0.45659 c -0.01168,0.0436 0.01255,0.0855 0.0561,0.0972 l 0.208914,0.056 c 0.03222,0.009 0.05684,0.04 0.05804,0.0733 0.0027,0.0784 0.01428,0.15733 0.0324,0.2362 0.0074,0.0326 -0.0086,0.0689 -0.03739,0.0857 l -0.187986,0.10853 c -0.03905,0.0226 -0.0514,0.0688 -0.0289,0.10781 z m 0.801993,-0.1896 c -0.217501,-0.37672 -0.08781,-0.86076 0.288923,-1.07826 0.376727,-0.21751 0.860767,-0.0878 1.078267,0.28891 0.217508,0.37674 0.0878,0.86076 -0.288924,1.07827 -0.376732,0.2175 -0.860757,0.0878 -1.078266,-0.28892 z m 0.136715,-0.0789 c 0.174846,0.30285 0.55977,0.40598 0.862613,0.23114 0.302841,-0.17485 0.405981,-0.55977 0.231136,-0.86261 -0.174846,-0.30285 -0.559772,-0.40599 -0.862613,-0.23114 -0.302846,0.17485 -0.405981,0.55977 -0.231136,0.86261 z"
         fill="#000000"
         fill-opacity="1"
         stroke="none"
         marker="none"
         visibility="visible"
         display="inline"
         overflow="visible"
         id="path6-0-1-5" /></g><g
       id="g7"
       transform="matrix(0.7495082,0,0,0.7495082,-62.504404,-107.77136)"><g
         id="g9476-6-1-2-6-7"
         transform="matrix(0.66513316,0,0,0.66077036,-5.9208309,153.86586)"
         style="stroke-linecap:butt;stroke-linejoin:round"><path
           id="path9459-8-0-6-0-33"
           d="m 31.863437,4.3238523 -7.66673,-7.7084535 A 4.0055504,4.027275 1.5528537e-8 0 0 21.364508,-4.563995 H 11.007845 A 6.0078449,6.0404293 1.5526399e-8 0 0 5.0000001,1.4764343 V 25.638151 a 6.0078449,6.0404293 1.5526399e-8 0 0 6.0078449,6.04043 h 16.02092 a 6.0078449,6.0404293 1.5526399e-8 0 0 6.007846,-6.040429 V 7.1714114 A 4.0048695,4.0265904 1.5529351e-8 0 0 31.863437,4.3238523 Z m -8.839902,-6.0405501 7.180876,7.220085 H 25.02615 A 2.0049179,2.0157919 1.5519886e-8 0 1 23.023535,3.4899107 Z m 8.01046,27.3548498 a 4.009836,4.0315839 1.5526196e-8 0 1 -4.00523,4.026953 h -16.02092 a 4.009836,4.0315839 1.5526196e-8 0 1 -4.00523,-4.026954 l 1e-7,-24.1617167 A 4.0097558,4.0315034 1.5521463e-8 0 1 11.007845,-2.5505186 H 21.02092 v 6.0404293 a 4.0052299,4.0269529 1.5522074e-8 0 0 4.00523,4.0269529 h 6.007845 z"
           inkscape:connector-curvature="0"
           style="fill:#000000;fill-opacity:1;stroke:#ffffff;stroke-width:1.00976;stroke-linecap:square;stroke-linejoin:round;stroke-miterlimit:4;stroke-dasharray:none;stroke-opacity:1;paint-order:markers fill stroke" /></g><rect
         style="fill:#008000;fill-opacity:1;stroke:none;stroke-width:0.253208;stroke-linecap:butt;stroke-linejoin:round;stroke-miterlimit:10;stroke-dasharray:0.759624, 1.26604;stroke-dashoffset:0;stroke-opacity:1"
         id="rect9489-3-4-0-8-9"
         width="15.242799"
         height="4.3371344"
         x="-0.88517499"
         y="167.87994" /><g
         id="g9564-5-8-6-5-2"
         transform="matrix(-0.00384541,-0.45557288,0.44286462,-0.00395576,-44.901571,227.50603)"
         style="stroke-linecap:butt;stroke-linejoin:round"><g
           transform="matrix(0.64288412,-0.00310086,-0.00310086,0.99997308,51.027162,0.22795525)"
           id="g9487-8-7-6-3-4"
           style="stroke-linecap:butt;stroke-linejoin:round"><rect
             style="fill:#000000;fill-opacity:1;stroke:none;stroke-width:0.529167;stroke-linecap:butt;stroke-linejoin:round;stroke-miterlimit:10;stroke-dasharray:1.5875, 2.64583;stroke-dashoffset:0;stroke-opacity:1"
             id="rect9478-8-08-4-9-4"
             width="8.174119"
             height="3.0115175"
             x="102.54849"
             y="-153.24789"
             transform="rotate(90.497491)" /><rect
             transform="rotate(90.497491)"
             y="-153.24789"
             x="112.65859"
             height="3.0115175"
             width="8.174119"
             id="rect9480-7-6-6-4-4"
             style="fill:#000000;fill-opacity:1;stroke:none;stroke-width:0.529167;stroke-linecap:butt;stroke-linejoin:round;stroke-miterlimit:10;stroke-dasharray:1.5875, 2.64583;stroke-dashoffset:0;stroke-opacity:1" /><rect
             style="fill:#000000;fill-opacity:1;stroke:none;stroke-width:0.529167;stroke-linecap:butt;stroke-linejoin:round;stroke-miterlimit:10;stroke-dasharray:1.5875, 2.64583;stroke-dashoffset:0;stroke-opacity:1"
             id="rect9482-2-2-2-1-9"
             width="8.174119"
             height="3.0115175"
             x="122.76869"
             y="-153.24789"
             transform="rotate(90.497491)" /></g><g
           id="g9506-3-47-8-5-9"
           transform="matrix(0.64288412,-0.00310086,-0.00310086,0.99997308,48.101797,0.20255414)"
           style="stroke-linecap:butt;stroke-linejoin:round"><rect
             transform="rotate(90.497491)"
             y="-153.24789"
             x="102.54849"
             height="3.0115175"
             width="8.174119"
             id="rect9500-4-9-9-4-38"
             style="fill:#000000;fill-opacity:1;stroke:none;stroke-width:0.529167;stroke-linecap:butt;stroke-linejoin:round;stroke-miterlimit:10;stroke-dasharray:1.5875, 2.64583;stroke-dashoffset:0;stroke-opacity:1" /><rect
             style="fill:#000000;fill-opacity:1;stroke:none;stroke-width:0.529167;stroke-linecap:butt;stroke-linejoin:round;stroke-miterlimit:10;stroke-dasharray:1.5875, 2.64583;stroke-dashoffset:0;stroke-opacity:1"
             id="rect9502-7-3-6-15-32"
             width="8.174119"
             height="3.0115175"
             x="112.65859"
             y="-153.24789"
             transform="rotate(90.497491)" /><rect
             transform="rotate(90.497491)"
             y="-153.24789"
             x="122.76869"
             height="3.0115175"
             width="8.174119"
             id="rect9504-5-9-0-5-9"
             style="fill:#000000;fill-opacity:1;stroke:none;stroke-width:0.529167;stroke-linecap:butt;stroke-linejoin:round;stroke-miterlimit:10;stroke-dasharray:1.5875, 2.64583;stroke-dashoffset:0;stroke-opacity:1" /></g><g
           transform="matrix(0.64288412,-0.00310086,-0.00310086,0.99997308,45.176431,0.17715302)"
           id="g9514-1-2-7-4-54"
           style="stroke-linecap:butt;stroke-linejoin:round"><rect
             style="fill:#000000;fill-opacity:1;stroke:none;stroke-width:0.529167;stroke-linecap:butt;stroke-linejoin:round;stroke-miterlimit:10;stroke-dasharray:1.5875, 2.64583;stroke-dashoffset:0;stroke-opacity:1"
             id="rect9508-0-8-0-9-3"
             width="8.174119"
             height="3.0115175"
             x="102.54849"
             y="-153.24789"
             transform="rotate(90.497491)" /><rect
             transform="rotate(90.497491)"
             y="-153.24789"
             x="112.65859"
             height="3.0115175"
             width="8.174119"
             id="rect9510-9-3-1-8-9"
             style="fill:#000000;fill-opacity:1;stroke:none;stroke-width:0.529167;stroke-linecap:butt;stroke-linejoin:round;stroke-miterlimit:10;stroke-dasharray:1.5875, 2.64583;stroke-dashoffset:0;stroke-opacity:1" /><rect
             style="fill:#000000;fill-opacity:1;stroke:none;stroke-width:0.529167;stroke-linecap:butt;stroke-linejoin:round;stroke-miterlimit:10;stroke-dasharray:1.5875, 2.64583;stroke-dashoffset:0;stroke-opacity:1"
             id="rect9512-6-0-0-3-4"
             width="8.174119"
             height="3.0115175"
             x="122.76869"
             y="-153.24789"
             transform="rotate(90.497491)" /></g><g
           id="g9522-5-1-1-8-9"
           transform="matrix(0.64288412,-0.00310086,-0.00310086,0.99997308,42.251066,0.15175192)"
           style="stroke-linecap:butt;stroke-linejoin:round"><rect
             transform="rotate(90.497491)"
             y="-153.24789"
             x="102.54849"
             height="3.0115175"
             width="8.174119"
             id="rect9516-0-7-3-5-5"
             style="fill:#000000;fill-opacity:1;stroke:none;stroke-width:0.529167;stroke-linecap:butt;stroke-linejoin:round;stroke-miterlimit:10;stroke-dasharray:1.5875, 2.64583;stroke-dashoffset:0;stroke-opacity:1" /><rect
             style="fill:#000000;fill-opacity:1;stroke:none;stroke-width:0.529167;stroke-linecap:butt;stroke-linejoin:round;stroke-miterlimit:10;stroke-dasharray:1.5875, 2.64583;stroke-dashoffset:0;stroke-opacity:1"
             id="rect9518-8-89-7-2-5"
             width="8.174119"
             height="3.0115175"
             x="112.65859"
             y="-153.24789"
             transform="rotate(90.497491)" /><rect
             transform="rotate(90.497491)"
             y="-153.24789"
             x="122.76869"
             height="3.0115175"
             width="8.174119"
             id="rect9520-8-1-7-2-7"
             style="fill:#000000;fill-opacity:1;stroke:none;stroke-width:0.529167;stroke-linecap:butt;stroke-linejoin:round;stroke-miterlimit:10;stroke-dasharray:1.5875, 2.64583;stroke-dashoffset:0;stroke-opacity:1" /></g><g
           transform="matrix(0.64288412,-0.00310086,-0.00310086,0.99997308,39.325701,0.12635081)"
           id="g9530-4-5-2-27-3"
           style="stroke-linecap:butt;stroke-linejoin:round"><rect
             style="fill:#000000;fill-opacity:1;stroke:none;stroke-width:0.529167;stroke-linecap:butt;stroke-linejoin:round;stroke-miterlimit:10;stroke-dasharray:1.5875, 2.64583;stroke-dashoffset:0;stroke-opacity:1"
             id="rect9524-3-4-6-0-9"
             width="8.174119"
             height="3.0115175"
             x="102.54849"
             y="-153.24789"
             transform="rotate(90.497491)" /><rect
             transform="rotate(90.497491)"
             y="-153.24789"
             x="112.65859"
             height="3.0115175"
             width="8.174119"
             id="rect9526-0-9-4-3-07"
             style="fill:#000000;fill-opacity:1;stroke:none;stroke-width:0.529167;stroke-linecap:butt;stroke-linejoin:round;stroke-miterlimit:10;stroke-dasharray:1.5875, 2.64583;stroke-dashoffset:0;stroke-opacity:1" /><rect
             style="fill:#000000;fill-opacity:1;stroke:none;stroke-width:0.529167;stroke-linecap:butt;stroke-linejoin:round;stroke-miterlimit:10;stroke-dasharray:1.5875, 2.64583;stroke-dashoffset:0;stroke-opacity:1"
             id="rect9528-8-2-5-4-2"
             width="8.174119"
             height="3.0115175"
             x="122.76869"
             y="-153.24789"
             transform="rotate(90.497491)" /></g><g
           id="g9538-2-5-2-6-7"
           transform="matrix(0.64288412,-0.00310086,-0.00310086,0.99997308,36.400336,0.10094969)"
           style="stroke-linecap:butt;stroke-linejoin:round"><rect
             transform="rotate(90.497491)"
             y="-153.24789"
             x="102.54849"
             height="3.0115175"
             width="8.174119"
             id="rect9532-5-7-0-3-2"
             style="fill:#000000;fill-opacity:1;stroke:none;stroke-width:0.529167;stroke-linecap:butt;stroke-linejoin:round;stroke-miterlimit:10;stroke-dasharray:1.5875, 2.64583;stroke-dashoffset:0;stroke-opacity:1" /><rect
             style="fill:#000000;fill-opacity:1;stroke:none;stroke-width:0.529167;stroke-linecap:butt;stroke-linejoin:round;stroke-miterlimit:10;stroke-dasharray:1.5875, 2.64583;stroke-dashoffset:0;stroke-opacity:1"
             id="rect9534-7-4-2-6-9"
             width="8.174119"
             height="3.0115175"
             x="112.65859"
             y="-153.24789"
             transform="rotate(90.497491)" /><rect
             transform="rotate(90.497491)"
             y="-153.24789"
             x="122.76869"
             height="3.0115175"
             width="8.174119"
             id="rect9536-1-9-9-3-0"
             style="fill:#000000;fill-opacity:1;stroke:none;stroke-width:0.529167;stroke-linecap:butt;stroke-linejoin:round;stroke-miterlimit:10;stroke-dasharray:1.5875, 2.64583;stroke-dashoffset:0;stroke-opacity:1" /></g></g><g
         aria-label=".bed"
         transform="matrix(0.11675464,0,0,0.11675464,-32.641654,-57.663601)"
         style="font-style:normal;font-weight:normal;font-size:32px;line-height:1.25;font-family:sans-serif;text-align:center;letter-spacing:0px;word-spacing:0px;text-anchor:middle;fill:#000000;fill-opacity:1;stroke:none;stroke-linecap:butt;stroke-linejoin:round"
         id="flowRoot20943-9-0-3-5"><path
           d="m 305.38184,1955.9844 h 3.29687 v 3.9687 h -3.29687 z"
           style="font-size:32px;text-align:center;text-anchor:middle;fill:#ffffff;stroke-linecap:butt;stroke-linejoin:round"
           id="path50793-9-4-0" /><path
           d="m 327.70996,1951.2188 q 0,-3.1719 -1.3125,-4.9688 -1.29687,-1.8125 -3.57812,-1.8125 -2.28125,0 -3.59375,1.8125 -1.29688,1.7969 -1.29688,4.9688 0,3.1718 1.29688,4.9843 1.3125,1.7969 3.59375,1.7969 2.28125,0 3.57812,-1.7969 1.3125,-1.8125 1.3125,-4.9843 z m -9.78125,-6.1094 q 0.90625,-1.5625 2.28125,-2.3125 1.39063,-0.7656 3.3125,-0.7656 3.1875,0 5.17188,2.5312 2,2.5313 2,6.6563 0,4.125 -2,6.6562 -1.98438,2.5313 -5.17188,2.5313 -1.92187,0 -3.3125,-0.75 -1.375,-0.7657 -2.28125,-2.3282 v 2.625 h -2.89062 v -24.3125 h 2.89062 z"
           style="font-size:32px;text-align:center;text-anchor:middle;fill:#ffffff;stroke-linecap:butt;stroke-linejoin:round"
           id="path50795-9-4-41" /><path
           d="m 350.42871,1950.4844 v 1.4062 h -13.21875 q 0.1875,2.9688 1.78125,4.5313 1.60938,1.5469 4.46875,1.5469 1.65625,0 3.20313,-0.4063 1.5625,-0.4062 3.09375,-1.2187 v 2.7187 q -1.54688,0.6563 -3.17188,1 -1.625,0.3438 -3.29687,0.3438 -4.1875,0 -6.64063,-2.4375 -2.4375,-2.4375 -2.4375,-6.5938 0,-4.2969 2.3125,-6.8125 2.32813,-2.5312 6.26563,-2.5312 3.53125,0 5.57812,2.2812 2.0625,2.2656 2.0625,6.1719 z m -2.875,-0.8438 q -0.0312,-2.3593 -1.32812,-3.7656 -1.28125,-1.4062 -3.40625,-1.4062 -2.40625,0 -3.85938,1.3593 -1.4375,1.3594 -1.65625,3.8282 z"
           style="font-size:32px;text-align:center;text-anchor:middle;fill:#ffffff;stroke-linecap:butt;stroke-linejoin:round"
           id="path50797-4-3-7" /><path
           d="m 366.66309,1945.1094 v -9.4688 h 2.875 v 24.3125 h -2.875 v -2.625 q -0.90625,1.5625 -2.29688,2.3282 -1.375,0.75 -3.3125,0.75 -3.17187,0 -5.17187,-2.5313 -1.98438,-2.5312 -1.98438,-6.6562 0,-4.125 1.98438,-6.6563 2,-2.5312 5.17187,-2.5312 1.9375,0 3.3125,0.7656 1.39063,0.75 2.29688,2.3125 z m -9.79688,6.1094 q 0,3.1718 1.29688,4.9843 1.3125,1.7969 3.59375,1.7969 2.28125,0 3.59375,-1.7969 1.3125,-1.8125 1.3125,-4.9843 0,-3.1719 -1.3125,-4.9688 -1.3125,-1.8125 -3.59375,-1.8125 -2.28125,0 -3.59375,1.8125 -1.29688,1.7969 -1.29688,4.9688 z"
           style="font-size:32px;text-align:center;text-anchor:middle;fill:#ffffff;stroke-linecap:butt;stroke-linejoin:round"
           id="path50799-5-97-9" /></g></g><circle
       class="cls-1"
       cx="73.390198"
       cy="-81.617416"
       r="6.9686084"
       id="circle4-6" /><circle
       class="cls-1"
       cx="62.248077"
       cy="-18.081221"
       r="6.9686084"
       id="circle4-6-7"
       style="fill:none;stroke:#000000;stroke-width:1.17614px;stroke-miterlimit:10" /><circle
       class="cls-1"
       cx="62.248081"
       cy="-0.74962419"
       r="6.9686084"
       id="circle4-6-5"
       style="fill:none;stroke:#000000;stroke-width:1.17614px;stroke-miterlimit:10" /><g
       id="g2"
       transform="matrix(1.1702519,0,0,1.1702519,-63.623272,-118.83823)"><path
         d="m -20.657414,134.92449 c 1.172389,0 2.19823,-0.95257 2.271505,-2.12496 0.07327,-2.78442 0.366371,-6.30159 0.586194,-7.03434 0.146549,-0.58619 0.439647,-1.24566 0.879293,-1.90513 v 11.1377 c 0,0.73275 0.586194,1.24567 1.245664,1.24567 h 7.986904 c 0.7327435,0 1.245664,-0.5862 1.245664,-1.24567 v -12.09027 c 0.4396461,0.36638 0.8060179,0.80602 1.0991153,1.09912 1.0258409,1.02584 1.8318588,1.90513 2.8576997,2.2715 2.63787668,1.17239 6.667966,0.36638 7.4007096,0.21983 1.2456639,-0.2931 1.9784075,-1.46549 1.6853101,-2.71115 -0.2930975,-1.24567 -1.4654871,-1.97841 -2.7111511,-1.68531 -1.3189383,0.29309 -3.73699192,0.51292 -4.61628414,0.0733 -0.29309746,-0.14655 -1.02584096,-0.87929 -1.46548706,-1.39221 -1.6853101,-1.68531 -3.7369919,-3.73699 -6.3015943,-3.81027 l -1.9784071,5.20248 -0.732744,-3.37062 h 0.07327 c 0.293098,0 0.512921,-0.21982 0.512921,-0.51292 v -0.87929 c 0,-0.2931 -0.219823,-0.51292 -0.512921,-0.51292 h -1.172389 c -0.293098,0 -0.512921,0.21982 -0.512921,0.51292 v 0.87929 c 0,0.2931 0.219823,0.51292 0.512921,0.51292 h 0.07327 l -0.732743,3.37062 -1.978408,-5.20248 c -4.249912,0.14655 -6.667966,5.56885 -7.180886,7.47398 -0.439646,1.53877 -0.732744,6.52142 -0.806018,7.98691 -0.07327,1.24566 0.879292,2.2715 2.124956,2.34478 h 0.146549 z"
         id="path2"
         style="stroke-width:0.732744" /><circle
         cx="-11.717944"
         cy="110.08448"
         r="5.275753"
         id="circle2"
         style="stroke-width:0.732744" /></g><path
       d="m 45.13739,43.748585 c -0.76973,0 -1.39691,0.627184 -1.39691,1.39691 0,0.769727 0.62718,1.39691 1.39691,1.39691 0.76972,0 1.39691,-0.627183 1.39691,-1.39691 0,-0.769726 -0.62719,-1.39691 -1.39691,-1.39691 z"
       id="path2-3-4"
       style="fill:#b58900;fill-opacity:1;stroke-width:0.285083" /><path
       d="m 55.64581,50.431542 c -1.21229,0 -2.20008,0.987794 -2.20008,2.200086 0,1.212293 0.98779,2.200088 2.20008,2.200088 1.21229,0 2.20009,-0.987795 2.20009,-2.200088 0,-1.212292 -0.9878,-2.200086 -2.20009,-2.200086 z"
       id="path2-3-2-4"
       style="fill:#b58900;fill-opacity:1;stroke-width:0.448997" /><path
       d="m 49.70327,46.581517 c -1.32264,0 -2.40034,1.0777 -2.40034,2.400332 0,1.322631 1.0777,2.400333 2.40034,2.400333 1.32263,0 2.40033,-1.077702 2.40033,-2.400333 0,-1.322632 -1.0777,-2.400332 -2.40033,-2.400332 z"
       id="path2-3-26-4"
       style="fill:#b58900;fill-opacity:1;stroke-width:0.489863" /><path
       d="m 56.79029,46.474072 c -0.76973,0 -1.39691,0.627184 -1.39691,1.39691 0,0.769725 0.62718,1.39691 1.39691,1.39691 0.76973,0 1.39691,-0.627185 1.39691,-1.39691 0,-0.769726 -0.62718,-1.39691 -1.39691,-1.39691 z"
       id="path2-3-9-7"
       style="fill:#b58900;fill-opacity:1;stroke-width:0.285083" /><path
       d="m 52.45307,39.88236 c 0,-0.912267 -0.74122,-1.653484 -1.65348,-1.653484 -0.91227,0 -1.65349,0.741217 -1.65349,1.653484 0,0.912269 0.74122,1.653486 1.65349,1.653486 0.91226,0 1.65348,-0.741217 1.65348,-1.653486 z"
       id="path4-6"
       style="fill:#b58900;fill-opacity:1;stroke-width:0.285083" /><path
       d="m 55.9662,39.491142 c -1.3684,0 -2.48023,1.111827 -2.48023,2.480228 0,1.368402 1.11183,2.480228 2.48023,2.480228 1.3684,0 2.48023,-1.111826 2.48023,-2.480228 0,-1.368401 -1.08332,-2.480228 -2.48023,-2.480228 z"
       id="path6-31"
       style="fill:#b58900;fill-opacity:1;stroke-width:0.285083" /><path
       d="m 45.14917,48.539598 c -1.07446,0 -1.94745,0.872998 -1.94745,1.947457 0,1.074459 0.87299,1.947457 1.94745,1.947457 1.07446,0 1.94746,-0.872998 1.94746,-1.947457 0,-1.074459 -0.85061,-1.947457 -1.94746,-1.947457 z"
       id="path6-3-7"
       style="fill:#b58900;fill-opacity:1;stroke-width:0.223845" /><path
       d="m 58.83233,57.132445 c -0.76973,0 -1.39691,0.627184 -1.39691,1.39691 0,0.769727 0.62718,1.39691 1.39691,1.39691 0.76972,0 1.39691,-0.627183 1.39691,-1.39691 0,-0.769726 -0.62719,-1.39691 -1.39691,-1.39691 z"
       id="path2-3-4-8"
       style="fill:#b58900;fill-opacity:1;stroke-width:0.285083" /><path
       d="m 67.18954,58.896521 c -1.21229,0 -2.20009,0.987794 -2.20009,2.200086 0,1.212293 0.9878,2.200087 2.20009,2.200087 1.21229,0 2.20008,-0.987794 2.20008,-2.200087 0,-1.212292 -0.98779,-2.200086 -2.20008,-2.200086 z"
       id="path2-3-2-4-8"
       style="fill:#b58900;fill-opacity:1;stroke-width:0.448997" /><path
       d="m 65.82056,42.420599 c -1.32264,0 -2.40034,1.0777 -2.40034,2.400332 0,1.322631 1.0777,2.400333 2.40034,2.400333 1.32263,0 2.40033,-1.077702 2.40033,-2.400333 0,-1.322632 -1.0777,-2.400332 -2.40033,-2.400332 z"
       id="path2-3-26-4-3"
       style="fill:#b58900;fill-opacity:1;stroke-width:0.489863" /><path
       d="m 72.91589,55.67893 c -0.76973,0 -1.39691,0.627184 -1.39691,1.39691 0,0.769725 0.62718,1.39691 1.39691,1.39691 0.76973,0 1.39691,-0.627185 1.39691,-1.39691 0,-0.769726 -0.62718,-1.39691 -1.39691,-1.39691 z"
       id="path2-3-9-7-1"
       style="fill:#b58900;fill-opacity:1;stroke-width:0.285083" /><path
       d="m 67.09891,53.185004 c 0,-0.912267 -0.74121,-1.653484 -1.65348,-1.653484 -0.91227,0 -1.65349,0.741217 -1.65349,1.653484 0,0.91227 0.74122,1.653487 1.65349,1.653487 0.91227,0 1.65348,-0.741217 1.65348,-1.653487 z"
       id="path4-6-8"
       style="fill:#b58900;fill-opacity:1;stroke-width:0.285083" /><path
       d="m 75.05643,43.992622 c -1.3684,0 -2.48023,1.111827 -2.48023,2.480228 0,1.368402 1.11183,2.480228 2.48023,2.480228 1.3684,0 2.48023,-1.111826 2.48023,-2.480228 0,-1.368401 -1.08332,-2.480228 -2.48023,-2.480228 z"
       id="path6-31-9"
       style="fill:#b58900;fill-opacity:1;stroke-width:0.285083" /><path
       d="m 49.40922,56.073494 c -1.07446,0 -1.94746,0.872998 -1.94746,1.947457 0,1.074459 0.873,1.947457 1.94746,1.947457 1.07446,0 1.94746,-0.872998 1.94746,-1.947457 0,-1.074459 -0.85061,-1.947457 -1.94746,-1.947457 z"
       id="path6-3-7-6"
       style="fill:#b58900;fill-opacity:1;stroke-width:0.223845" /><g
       id="g44"
       transform="translate(-4.6144883,0.75394703)"><rect
         style="fill:#ffffff;fill-opacity:0;stroke:#000000;stroke-width:0.5;stroke-linecap:round;stroke-linejoin:round;stroke-dasharray:none;stroke-opacity:1;paint-order:stroke fill markers"
         id="rect44"
         width="129.73422"
         height="60.915421"
         x="143.99014"
         y="-198.42827"
         ry="5.2267752" /><text
         xml:space="preserve"
         style="font-size:5.29167px;line-height:1.25;font-family:Sans;-inkscape-font-specification:'Sans, Normal';stroke-width:0.297536"
         x="129.73828"
         y="-71.681839"
         id="text45"><tspan
           sodipodi:role="line"
           id="tspan45"
           style="font-size:5.29167px;stroke-width:0.297536"
           x="129.73828"
           y="-71.681839">UMAP visualization</tspan></text></g><g
       id="g4468-6"
       transform="translate(117.63494,165.26315)" /><path
       class="foreground"
       aria-hidden="true"
       d=""
       display="none"
       id="path231-5"
       style="fill:none;stroke-width:0.116891;stroke-miterlimit:10" /><path
       class="foreground"
       aria-hidden="true"
       d=""
       pointer-events="none"
       display="none"
       id="path53-6"
       style="fill:none;stroke-width:0.133963;stroke-miterlimit:10" /><path
       class="foreground"
       aria-hidden="true"
       d=""
       pointer-events="none"
       display="none"
       id="path76-9"
       style="fill:none;stroke-width:0.133963;stroke-miterlimit:10" /><text
       xml:space="preserve"
       transform="matrix(0.26458333,0,0,0.26458333,102.8408,122.90688)"
       id="text4-3"
       style="font-size:8px;line-height:1;font-family:Arial;-inkscape-font-specification:Arial;white-space:pre;shape-inside:url(#rect5-5);display:inline" /><g
       style="clip-rule:evenodd;fill-rule:evenodd;image-rendering:optimizeQuality;shape-rendering:geometricPrecision;text-rendering:geometricPrecision"
       id="g3-8-7"
       transform="matrix(0.26458333,0,0,0.26458333,103.46436,279.83773)" /><g
       id="g12"
       transform="matrix(0.37274475,0,0,0.37274475,45.177357,46.102723)"><path
         d="m 156.53036,-15.075302 c -0.73422,0 -1.33247,0.59825 -1.33247,1.332466 0,0.734217 0.59825,1.332468 1.33247,1.332468 0.73422,0 1.33247,-0.598251 1.33247,-1.332468 0,-0.734216 -0.59825,-1.332466 -1.33247,-1.332466 z"
         id="path2-3"
         style="fill:#217f78;fill-opacity:1;stroke-width:0.271932" /><path
         d="m 170.24777,-9.6625813 c -1.15637,0 -2.0986,0.9422239 -2.0986,2.098589 0,1.1563644 0.94223,2.0985893 2.0986,2.0985893 1.15638,0 2.0986,-0.9422249 2.0986,-2.0985893 0,-1.1563651 -0.94222,-2.098589 -2.0986,-2.098589 z"
         id="path2-3-2"
         style="fill:#217f78;fill-opacity:1;stroke-width:0.428283" /><path
         d="m 160.88562,-12.37306 c -1.26163,0 -2.28961,1.027981 -2.28961,2.289596 0,1.2616142 1.02798,2.2895985 2.28961,2.2895985 1.26162,0 2.28961,-1.0279843 2.28961,-2.2895985 0,-1.261615 -1.02799,-2.289596 -2.28961,-2.289596 z"
         id="path2-3-26"
         style="fill:#217f78;fill-opacity:1;stroke-width:0.467264" /><path
         d="m 167.64573,-12.47555 c -0.73421,0 -1.33248,0.59825 -1.33248,1.332467 0,0.734215 0.59827,1.3324664 1.33248,1.3324664 0.73422,0 1.33248,-0.5982514 1.33248,-1.3324664 0,-0.734217 -0.59826,-1.332467 -1.33248,-1.332467 z"
         id="path2-3-9"
         style="fill:#217f78;fill-opacity:1;stroke-width:0.271932" /><path
         d="m 163.50858,-18.763166 c 0,-0.870181 -0.70703,-1.577204 -1.57721,-1.577204 -0.87019,0 -1.57722,0.707023 -1.57722,1.577204 0,0.870183 0.70703,1.577206 1.57722,1.577206 0.87018,0 1.57721,-0.707023 1.57721,-1.577206 z"
         id="path4"
         style="fill:#217f78;fill-opacity:1;stroke-width:0.271932" /><path
         d="m 166.98524,-19.136336 c -1.30529,0 -2.36583,1.060535 -2.36583,2.365808 0,1.305273 1.06054,2.365807 2.36583,2.365807 1.30527,0 2.36582,-1.060534 2.36582,-2.365807 0,-1.305273 -1.03336,-2.365808 -2.36582,-2.365808 z"
         id="path6"
         style="fill:#217f78;fill-opacity:1;stroke-width:0.271932" /><path
         d="m 161.62549,-6.1400756 c -1.02489,0 -1.85762,0.8327247 -1.85762,1.8576154 0,1.0248908 0.83273,1.8576152 1.85762,1.8576152 1.02489,0 1.85763,-0.8327244 1.85763,-1.8576152 0,-1.0248907 -0.81137,-1.8576154 -1.85763,-1.8576154 z"
         id="path6-3"
         style="fill:#217f78;fill-opacity:1;stroke-width:0.213518" /><path
         d="m 128.31433,-18.380213 c -0.75526,0 -1.37066,0.615398 -1.37066,1.37066 0,0.755264 0.6154,1.370663 1.37066,1.370663 0.75526,0 1.37066,-0.615399 1.37066,-1.370663 0,-0.755262 -0.6154,-1.37066 -1.37066,-1.37066 z"
         id="path2-3-5"
         style="fill:#6c71c4;fill-opacity:1;stroke-width:0.279727" /><path
         d="m 127.94436,-24.691189 c -1.18951,0 -2.15875,0.969234 -2.15875,2.158747 0,1.189512 0.96924,2.158746 2.15875,2.158746 1.18951,0 2.15874,-0.969234 2.15874,-2.158746 0,-1.189513 -0.96923,-2.158747 -2.15874,-2.158747 z"
         id="path2-3-2-9"
         style="fill:#6c71c4;fill-opacity:1;stroke-width:0.44056" /><path
         d="m 132.9246,-15.470327 c -1.29778,0 -2.35523,1.057449 -2.35523,2.355229 0,1.297779 1.05745,2.355231 2.35523,2.355231 1.29778,0 2.35523,-1.057452 2.35523,-2.355231 0,-1.29778 -1.05745,-2.355229 -2.35523,-2.355229 z"
         id="path2-3-26-8"
         style="fill:#6c71c4;fill-opacity:1;stroke-width:0.480659" /><path
         d="m 138.70275,-15.575754 c -0.75526,0 -1.37066,0.615399 -1.37066,1.370662 0,0.755262 0.6154,1.370663 1.37066,1.370663 0.75526,0 1.37067,-0.615401 1.37067,-1.370663 0,-0.755263 -0.61541,-1.370662 -1.37067,-1.370662 z"
         id="path2-3-9-4"
         style="fill:#6c71c4;fill-opacity:1;stroke-width:0.279727" /><path
         d="m 135.10502,-19.61147 c 0,-0.895125 -0.72729,-1.622415 -1.62242,-1.622415 -0.89512,0 -1.62241,0.72729 -1.62241,1.622415 0,0.895127 0.72729,1.622417 1.62241,1.622417 0.89513,0 1.62242,-0.72729 1.62242,-1.622417 z"
         id="path4-8"
         style="fill:#6c71c4;fill-opacity:1;stroke-width:0.279727" /><path
         d="m 138.1525,-21.123102 c -1.34269,0 -2.43362,1.090935 -2.43362,2.433624 0,1.34269 1.09093,2.433625 2.43362,2.433625 1.34269,0 2.43363,-1.090935 2.43363,-2.433625 0,-1.342689 -1.06296,-2.433624 -2.43363,-2.433624 z"
         id="path6-1"
         style="fill:#6c71c4;fill-opacity:1;stroke-width:0.279727" /><path
         d="m 142.22096,-13.017229 c -1.05428,0 -1.91087,0.856595 -1.91087,1.910864 0,1.05427 0.85659,1.9108654 1.91087,1.9108654 1.05426,0 1.91086,-0.8565954 1.91086,-1.9108654 0,-1.054269 -0.83463,-1.910864 -1.91086,-1.910864 z"
         id="path6-3-0"
         style="fill:#6c71c4;fill-opacity:1;stroke-width:0.21964" /><path
         d="m 117.33826,-8.6715981 c -0.75526,0 -1.37066,0.6153986 -1.37066,1.3706609 0,0.7552629 0.6154,1.3706616 1.37066,1.3706616 0.75527,0 1.37067,-0.6153987 1.37067,-1.3706616 0,-0.7552623 -0.6154,-1.3706609 -1.37067,-1.3706609 z"
         id="path2-3-5-3"
         style="fill:#6c71c4;fill-opacity:1;stroke-width:0.279727" /><path
         d="m 129.45584,-11.891601 c -1.18951,0 -2.15874,0.969233 -2.15874,2.1587472 0,1.1895129 0.96923,2.1587461 2.15874,2.1587461 1.18952,0 2.15875,-0.9692332 2.15875,-2.1587461 0,-1.1895142 -0.96923,-2.1587472 -2.15875,-2.1587472 z"
         id="path2-3-2-9-8"
         style="fill:#6c71c4;fill-opacity:1;stroke-width:0.44056" /><path
         d="m 120.97881,-8.8546168 c -1.29778,0 -2.35523,1.0574498 -2.35523,2.3552299 0,1.2977785 1.05745,2.3552305 2.35523,2.3552305 1.29778,0 2.35523,-1.057452 2.35523,-2.3552305 0,-1.2977801 -1.05745,-2.3552299 -2.35523,-2.3552299 z"
         id="path2-3-26-8-6"
         style="fill:#6c71c4;fill-opacity:1;stroke-width:0.480659" /><path
         d="m 122.00356,-19.312785 c -0.75526,0 -1.37066,0.615399 -1.37066,1.370661 0,0.755262 0.6154,1.370663 1.37066,1.370663 0.75526,0 1.37066,-0.615401 1.37066,-1.370663 0,-0.755262 -0.6154,-1.370661 -1.37066,-1.370661 z"
         id="path2-3-9-4-0"
         style="fill:#6c71c4;fill-opacity:1;stroke-width:0.279727" /><path
         d="m 118.83459,-16.301498 c 0,-0.895126 -0.72728,-1.622416 -1.62241,-1.622416 -0.89513,0 -1.62242,0.72729 -1.62242,1.622416 0,0.895127 0.72729,1.622416 1.62242,1.622416 0.89513,0 1.62241,-0.727289 1.62241,-1.622416 z"
         id="path4-8-4"
         style="fill:#6c71c4;fill-opacity:1;stroke-width:0.279727" /><path
         d="m 121.45331,-24.860133 c -1.3427,0 -2.43363,1.090935 -2.43363,2.433625 0,1.342689 1.09093,2.433623 2.43363,2.433623 1.34269,0 2.43362,-1.090934 2.43362,-2.433623 0,-1.34269 -1.06297,-2.433625 -2.43362,-2.433625 z"
         id="path6-1-8"
         style="fill:#6c71c4;fill-opacity:1;stroke-width:0.279727" /><path
         d="m 122.8792,-13.982265 c -1.05426,0 -1.91086,0.856594 -1.91086,1.910863 0,1.054271 0.8566,1.910866 1.91086,1.910866 1.05427,0 1.91087,-0.856595 1.91087,-1.910866 0,-1.054269 -0.83463,-1.910863 -1.91087,-1.910863 z"
         id="path6-3-0-8"
         style="fill:#6c71c4;fill-opacity:1;stroke-width:0.21964" /><path
         d="m 165.49,-7.6665944 c -0.73422,0 -1.33246,0.5982494 -1.33246,1.332465 0,0.7342168 0.59824,1.3324664 1.33246,1.3324664 0.73423,0 1.33248,-0.5982496 1.33248,-1.3324664 0,-0.7342156 -0.59825,-1.332465 -1.33248,-1.332465 z"
         id="path2-3-21"
         style="fill:#cb4b16;fill-opacity:1;stroke-width:0.271932" /><path
         d="m 177.02616,-15.127165 c -0.73421,0 -1.33247,0.59825 -1.33247,1.332466 0,0.734217 0.59826,1.332466 1.33247,1.332466 0.73422,0 1.33247,-0.598249 1.33247,-1.332466 0,-0.734216 -0.59825,-1.332466 -1.33247,-1.332466 z"
         id="path2-3-40"
         style="fill:#217f78;fill-opacity:1;stroke-width:0.271932" /><path
         d="m 180.68185,-0.6471154 c -1.15637,0 -2.09861,0.9422239 -2.09861,2.0985889 0,1.156366 0.94224,2.0985908 2.09861,2.0985908 1.15637,0 2.09859,-0.9422248 2.09859,-2.0985908 0,-1.156365 -0.94222,-2.0985889 -2.09859,-2.0985889 z"
         id="path2-3-2-5"
         style="fill:#217f78;fill-opacity:1;stroke-width:0.428283" /><path
         d="m 176.94288,-20.575641 c -1.26161,0 -2.2896,1.027982 -2.2896,2.289598 0,1.261613 1.02799,2.289598 2.2896,2.289598 1.26163,0 2.28962,-1.027985 2.28962,-2.289598 0,-1.261616 -1.02799,-2.289598 -2.28962,-2.289598 z"
         id="path2-3-26-9"
         style="fill:#217f78;fill-opacity:1;stroke-width:0.467264" /><path
         d="m 181.0529,-5.6940902 c -0.73422,0 -1.33247,0.5982497 -1.33247,1.3324656 0,0.7342158 0.59825,1.3324673 1.33247,1.3324673 0.73422,0 1.33248,-0.5982515 1.33248,-1.3324673 0,-0.7342159 -0.59826,-1.3324656 -1.33248,-1.3324656 z"
         id="path2-3-9-46"
         style="fill:#217f78;fill-opacity:1;stroke-width:0.271932" /><path
         d="m 176.61931,-2.4273691 c 0,-0.8701811 -0.70702,-1.5772038 -1.57722,-1.5772038 -0.87018,0 -1.5772,0.7070227 -1.5772,1.5772038 0,0.8701831 0.70702,1.5772057 1.5772,1.5772057 0.8702,0 1.57722,-0.7070226 1.57722,-1.5772057 z"
         id="path4-9"
         style="fill:#217f78;fill-opacity:1;stroke-width:0.271932" /><path
         d="m 177.78105,-10.777897 c -1.30528,0 -2.36582,1.0605355 -2.36582,2.3658077 0,1.3052732 1.06054,2.365808 2.36582,2.365808 1.30528,0 2.36582,-1.0605348 2.36582,-2.365808 0,-1.3052722 -1.03334,-2.3658077 -2.36582,-2.3658077 z"
         id="path6-2"
         style="fill:#217f78;fill-opacity:1;stroke-width:0.271932" /><path
         d="m 171.22836,-4.2462862 c -1.0249,0 -1.85763,0.8327244 -1.85763,1.8576144 0,1.0248916 0.83273,1.8576155 1.85763,1.8576155 1.02489,0 1.85762,-0.8327239 1.85762,-1.8576155 0,-1.02489 -0.81138,-1.8576144 -1.85762,-1.8576144 z"
         id="path6-3-2"
         style="fill:#217f78;fill-opacity:1;stroke-width:0.213518" /><path
         d="m 140.80652,0.6087986 c -1.14324,0 -2.07475,0.9315199 -2.07475,2.0747505 0,1.1432287 0.93151,2.0747508 2.07475,2.0747508 1.14324,0 2.07477,-0.9315221 2.07477,-2.0747508 0,-1.1432306 -0.93153,-2.0747505 -2.07477,-2.0747505 z"
         id="path2-3-2-7"
         style="fill:#cb4b16;fill-opacity:1;stroke-width:0.423418" /><path
         d="m 138.07394,4.721932 c -1.24729,0 -2.2636,1.0163044 -2.2636,2.2635883 0,1.24728 1.01631,2.263588 2.2636,2.263588 1.24729,0 2.2636,-1.016308 2.2636,-2.263588 0,-1.2472839 -1.01631,-2.2635883 -2.2636,-2.2635883 z"
         id="path2-3-26-85"
         style="fill:#cb4b16;fill-opacity:1;stroke-width:0.461956" /><path
         d="m 143.53225,5.4925646 c -0.72588,0 -1.31734,0.5914543 -1.31734,1.3173297 0,0.725874 0.59146,1.317329 1.31734,1.317329 0.72588,0 1.31733,-0.591455 1.31733,-1.317329 0,-0.7258754 -0.59145,-1.3173297 -1.31733,-1.3173297 z"
         id="path2-3-9-74"
         style="fill:#cb4b16;fill-opacity:1;stroke-width:0.268843" /><path
         d="m 137.75637,-0.6135403 c 0,-0.8602963 -0.699,-1.5592864 -1.5593,-1.5592864 -0.8603,0 -1.55929,0.6989901 -1.55929,1.5592864 0,0.8602981 0.69899,1.5592892 1.55929,1.5592892 0.8603,0 1.5593,-0.6989911 1.5593,-1.5592892 z"
         id="path4-1"
         style="fill:#cb4b16;fill-opacity:1;stroke-width:0.268843" /><path
         d="m 147.0858,-1.5692709 c -1.29044,0 -2.33893,1.0484866 -2.33893,2.338932 0,1.2904448 1.04849,2.3389323 2.33893,2.3389323 1.29045,0 2.33894,-1.0484875 2.33894,-2.3389323 0,-1.2904454 -1.02161,-2.338932 -2.33894,-2.338932 z"
         id="path6-85"
         style="fill:#cb4b16;fill-opacity:1;stroke-width:0.268843" /><path
         d="m 133.3205,1.594236 c -1.01325,0 -1.83653,0.8232651 -1.83653,1.8365133 0,1.0132492 0.82328,1.8365143 1.83653,1.8365143 1.01325,0 1.83652,-0.8232651 1.83652,-1.8365143 0,-1.0132482 -0.80216,-1.8365133 -1.83652,-1.8365133 z"
         id="path6-3-9"
         style="fill:#cb4b16;fill-opacity:1;stroke-width:0.211093" /><path
         d="m 138.61469,10.93943 c -1.14323,0 -2.07476,0.93152 -2.07476,2.074749 0,1.14323 0.93153,2.07475 2.07476,2.07475 1.14323,0 2.07477,-0.93152 2.07477,-2.07475 0,-1.143229 -0.93154,-2.074749 -2.07477,-2.074749 z"
         id="path2-3-2-7-4"
         style="fill:#cb4b16;fill-opacity:1;stroke-width:0.423418" /><path
         d="m 151.69525,8.5475933 c -1.24729,0 -2.2636,1.016304 -2.2636,2.2635867 0,1.247281 1.01631,2.263588 2.2636,2.263588 1.24729,0 2.26361,-1.016307 2.26361,-2.263588 0,-1.2472827 -1.01632,-2.2635867 -2.26361,-2.2635867 z"
         id="path2-3-26-85-8"
         style="fill:#cb4b16;fill-opacity:1;stroke-width:0.461956" /><path
         d="m 151.15595,5.0778895 c -0.72588,0 -1.31734,0.5914534 -1.31734,1.3173291 0,0.7258747 0.59146,1.3173297 1.31734,1.3173297 0.72588,0 1.31733,-0.591455 1.31733,-1.3173297 0,-0.7258757 -0.59145,-1.3173291 -1.31733,-1.3173291 z"
         id="path2-3-9-74-1"
         style="fill:#cb4b16;fill-opacity:1;stroke-width:0.268843" /><path
         d="m 143.81465,-2.7398366 c 0,-0.8602962 -0.699,-1.5592864 -1.55929,-1.5592864 -0.86031,0 -1.5593,0.6989902 -1.5593,1.5592864 0,0.8602981 0.69899,1.5592882 1.5593,1.5592882 0.86029,0 1.55929,-0.6989901 1.55929,-1.5592882 z"
         id="path4-1-2"
         style="fill:#cb4b16;fill-opacity:1;stroke-width:0.268843" /><path
         d="m 159.64905,5.9338926 c -1.29044,0 -2.33894,1.0484867 -2.33894,2.3389307 0,1.290445 1.0485,2.3389317 2.33894,2.3389317 1.29044,0 2.33894,-1.0484867 2.33894,-2.3389317 0,-1.290444 -1.02161,-2.3389307 -2.33894,-2.3389307 z"
         id="path6-85-8"
         style="fill:#cb4b16;fill-opacity:1;stroke-width:0.268843" /><path
         d="m 155.2497,1.3511848 c -1.01326,0 -1.83652,0.8232651 -1.83652,1.8365133 0,1.0132492 0.82326,1.8365134 1.83652,1.8365134 1.01326,0 1.83652,-0.8232642 1.83652,-1.8365134 0,-1.0132482 -0.80216,-1.8365133 -1.83652,-1.8365133 z"
         id="path6-3-9-9"
         style="fill:#cb4b16;fill-opacity:1;stroke-width:0.211093" /></g><g
       id="g6"><g
         id="g3"
         transform="translate(-0.03195724)"><g
           id="g1"
           transform="translate(2.1166667,3.59075)"><path
             d="m 118.21899,1.650104 a 1.1158357,1.1158357 0 0 0 1.11585,-1.11583536 1.1604692,1.1604692 0 0 0 0,-0.16068 l 1.62465,-0.9997898 a 1.1069091,1.1069091 0 0 0 1.37471,0 l 1.49968,1.0265698 a 1.1515425,1.1515425 0 0 0 0,0.1785328 1.1158357,1.1158357 0 0 0 2.22274,0 1.0979824,1.0979824 0 0 0 -0.11597,-0.490967 l 1.86567,-2.20489244 a 1.5175366,1.5175366 0 0 0 0.58917,0.1160487 1.5353901,1.5353901 0 1 0 -1.31222,-0.7230612 l -1.82997,2.23167084 a 1.1247624,1.1247624 0 0 0 -0.89268,0.1428256 l -1.61571,-1.03549554 c 0,0 0,-0.06248 0,-0.098197 a 1.1158357,1.1158357 0 1 0 -2.22276,0 c 0,0 0,0.053554 0,0.080346 l -1.67821,1.03549544 a 1.1158357,1.1158357 0 1 0 -0.6338,2.02635816 z"
             id="path1-73"
             style="fill:#000000;stroke-width:0.892669" /><rect
             x="117.38882"
             y="3.2569096"
             width="1.6425102"
             height="3.6688678"
             id="rect1-6"
             style="fill:#000000;stroke-width:0.892669" /><rect
             x="124.15524"
             y="3.2569096"
             width="1.6425102"
             height="3.6688678"
             id="rect2"
             style="fill:#000000;stroke-width:0.892669" /><rect
             x="127.53848"
             y="0.043301269"
             width="1.6425102"
             height="6.8646216"
             id="rect3"
             style="fill:#000000;stroke-width:0.892669" /><rect
             x="120.77204"
             y="1.3555235"
             width="1.6425102"
             height="5.5613256"
             id="rect4-5"
             style="fill:#000000;stroke-width:0.892669" /></g><path
           d="m 179.03716,7.2452299 c -0.015,0 -0.0452,0 -0.0603,0 -0.91901,0 -1.65724,-0.7080767 -1.68737,-1.6271041 -0.0302,-0.9340714 0.69303,-1.7174901 1.62711,-1.7476381 0.93407,-0.03091 1.7175,0.6930607 1.74763,1.6271031 0.0302,0.9341014 -0.7081,1.7175201 -1.62711,1.7476391 z m 0.72316,-3.4651292 h 0.015 c 0.34651,-0.01472 0.60263,-0.3011607 0.58757,-0.6327633 -0.015,-0.3314571 -0.28624,-0.5875418 -0.6177,-0.5875418 h -0.015 c -0.16573,0 -0.31638,0.07537 -0.42184,0.1957877 -0.10549,0.120712 -0.16573,0.271454 -0.16573,0.4368881 0.015,0.3314266 0.28623,0.5875703 0.6177,0.5875703 z m -7.14119,4.143116 c -0.10549,0.241129 -0.34652,0.406798 -0.6177,0.406798 -0.0904,0 -0.18077,-0.01472 -0.27119,-0.06006 -0.16573,-0.07567 -0.28623,-0.210804 -0.36158,-0.376679 -0.0603,-0.1657581 -0.0603,-0.3464721 0.015,-0.5121997 0.10549,-0.2411291 0.34652,-0.4068281 0.6177,-0.4068281 0.0904,0 0.18077,0.01472 0.27119,0.06036 0.16573,0.07537 0.28623,0.211098 0.36158,0.3766201 0.0603,0.1657576 0.0603,0.3465006 -0.015,0.5122587 z m -0.27119,-0.4067981 c -0.0302,-0.09068 -0.10549,-0.1654626 -0.19588,-0.2110977 -0.0452,-0.01472 -0.0904,-0.03091 -0.15065,-0.03091 -0.15066,0 -0.28624,0.09068 -0.34651,0.2258187 -0.0452,0.09068 -0.0452,0.195788 0,0.286469 0.0452,0.09039 0.10549,0.1654641 0.19587,0.2108041 0.18078,0.07567 0.40678,-0.01472 0.48211,-0.1957881 0.0603,-0.09068 0.0603,-0.195789 0.015,-0.28647 z m 9.03947,-4.5649583 h -0.0302 c -0.54237,0.01472 -0.97927,0.4821397 -0.96421,1.0245174 0.015,0.5423477 0.45197,0.9641614 0.99434,0.9641614 h 0.0302 c 0.27119,-0.01472 0.51224,-0.1207119 0.69303,-0.3163227 0.18077,-0.195789 0.27119,-0.4520207 0.27119,-0.7081067 -0.0302,-0.5424067 -0.45198,-0.9642494 -0.99435,-0.9642494 z m -8.39164,-3.13370206 c -0.0302,-0.180773 0.015,-0.36154567 0.1205,-0.51217067 0.10549,-0.150448 0.25615,-0.241129 0.43691,-0.286469 0.37664,-0.06036 0.72316,0.195788 0.78342,0.55745167 0.0603,0.37665 -0.18077,0.72315067 -0.55743,0.78344767 -0.0452,0 -0.0754,0.01472 -0.12054,0.01472 -0.33145,0.01472 -0.6177,-0.225819 -0.6629,-0.55748167 z m 1.03954,-0.180773 c 0,-0.03091 -0.015,-0.06036 -0.0302,-0.09039 l -0.49717,0.497156 c 0.0603,0.03091 0.13555,0.04505 0.21092,0.03091 0.21092,-0.03091 0.36158,-0.22581867 0.31638,-0.43691767 z m -0.75329,0.135433 c 0.015,0.04505 0.0302,0.09068 0.0452,0.135432 l 0.5273,-0.52730367 c -0.0603,-0.03091 -0.12053,-0.06036 -0.19587,-0.06036 -0.015,0 -0.0452,0 -0.0603,0 -0.10546,0.01472 -0.18078,0.07537 -0.24104,0.150448 -0.0603,0.09039 -0.0904,0.19578867 -0.0754,0.30145567 z m -1.77777,1.82292106 c -0.10546,-0.60261572 0.30131,-1.19018639 0.90395,-1.28057339 0.0603,-0.01472 0.13561,-0.01472 0.19587,-0.01472 0.54237,0 1.00941,0.39169467 1.09981,0.91902729 0.0452,0.286469 -0.015,0.5875417 -0.18078,0.8286117 -0.16569,0.2411287 -0.42184,0.4067387 -0.72315,0.4519617 -0.0603,0.01472 -0.12054,0.01472 -0.19588,0.01472 -0.54237,0.01472 -1.00941,-0.3766496 -1.0998,-0.9190273 z m 1.89829,-0.3314561 c 0,-0.01472 -0.015,-0.03091 -0.015,-0.04534 l -0.9793,0.9792944 c 0.0603,0.01472 0.12051,0.03091 0.18078,0.03091 0.0452,0 0.0904,0 0.13558,-0.01472 0.21092,-0.03091 0.40677,-0.1504476 0.5273,-0.3314557 0.13558,-0.180773 0.19587,-0.3917237 0.15065,-0.6176897 z M 172.9807,0.69141558 171.89596,1.7761419 c 0.0754,0.135432 0.18077,0.256144 0.30131,0.3314851 l 1.11487,-1.11490342 c -0.0904,-0.135433 -0.19588,-0.241129 -0.33145,-0.301455 z m -1.17513,0.84368572 0.93408,-0.93407272 c -0.0452,0 -0.0904,-0.01472 -0.13558,-0.01472 -0.0452,0 -0.0904,0 -0.13555,0.01472 -0.43691,0.07567 -0.73823,0.49718502 -0.6629,0.93407272 z m 2.78718,6.5084154 c 0.15065,0.241129 0.18077,0.527303 0.12053,0.798492 -0.12053,0.467037 -0.54237,0.798493 -1.02448,0.798493 -0.0904,0 -0.16572,-0.01472 -0.25614,-0.03091 -0.55743,-0.1354319 -0.90395,-0.708106 -0.76836,-1.280603 0.12054,-0.4670361 0.54237,-0.7984931 1.02448,-0.7984931 0.0904,0 0.16573,0.01472 0.25614,0.03091 0.27119,0.06006 0.49717,0.241129 0.64784,0.4821111 z m -0.25615,0.150448 c -0.10549,-0.165758 -0.27119,-0.28647 -0.46704,-0.3465311 -0.0603,-0.01472 -0.12054,-0.01472 -0.18077,-0.01472 -0.34652,0 -0.64784,0.2411291 -0.72316,0.5724971 -0.10549,0.406739 0.15065,0.813567 0.55743,0.903924 0.0603,0.01472 0.12051,0.01472 0.18077,0.01472 0.34651,0 0.64783,-0.241129 0.72316,-0.572526 0.0452,-0.180774 0.015,-0.391695 -0.0904,-0.557394 z m 6.04138,-1.1450238 h -0.0302 c -0.42184,0.01472 -0.75328,0.3615761 -0.73822,0.7833887 0.015,0.4067981 0.34651,0.7382551 0.75329,0.7382551 h 0.0302 c 0.42185,-0.01472 0.75329,-0.361576 0.73823,-0.7834481 0,-0.4218136 -0.33145,-0.7381957 -0.7533,-0.7381957 z m -4.12802,-0.07567 c 0.0754,0.210804 0.0754,0.4368881 -0.015,0.6327357 -0.13555,0.3014841 -0.43691,0.4971841 -0.76836,0.4971841 -0.1205,0 -0.22599,-0.03091 -0.33144,-0.07537 -0.21093,-0.09039 -0.36158,-0.2561441 -0.43691,-0.4670071 -0.0754,-0.2110977 -0.0754,-0.4369457 0.015,-0.6328223 0.13558,-0.3011321 0.4369,-0.4971551 0.76835,-0.4971551 0.12051,0 0.226,0.03091 0.33145,0.07537 0.21092,0.105402 0.36158,0.271454 0.43691,0.4670357 z m -0.27119,0.120712 c -0.0452,-0.135433 -0.15066,-0.2411286 -0.28624,-0.3014547 -0.0754,-0.03091 -0.13555,-0.04534 -0.21092,-0.04534 -0.21092,0 -0.40677,0.1207121 -0.4821,0.3163827 -0.0603,0.135432 -0.0603,0.271454 -0.015,0.4067977 0.0452,0.135432 0.15065,0.241129 0.28623,0.301426 0.0754,0.03091 0.13558,0.04505 0.21092,0.04505 0.21092,0 0.40678,-0.120712 0.48211,-0.316353 0.0603,-0.1354326 0.0603,-0.2714537 0.015,-0.4067687 z m -2.50093,-3.0282702 c 0.21093,0 0.42185,0.04505 0.6177,0.1354321 0.37665,0.1657576 0.67796,0.4670656 0.82862,0.8587593 0.15065,0.3917247 0.13558,0.8135678 -0.0302,1.1901874 -0.24104,0.5574517 -0.79849,0.9340724 -1.41619,0.9340724 -0.21092,0 -0.42184,-0.04534 -0.61769,-0.135433 -0.78343,-0.3465307 -1.145,-1.265558 -0.79849,-2.0490058 0.24104,-0.5724377 0.79849,-0.9340714 1.41618,-0.9340714 z m 0.49717,0.4068267 c -0.15065,-0.07537 -0.31638,-0.105107 -0.49717,-0.105107 -0.49717,0 -0.94914,0.286469 -1.145,0.7532697 -0.27119,0.6327937 0.015,1.3710181 0.64783,1.6421781 0.16573,0.07537 0.33145,0.1051071 0.49717,0.1051071 0.49717,0 0.94915,-0.2864691 1.14501,-0.7532398 0.13558,-0.3011606 0.13558,-0.6478687 0.015,-0.9492054 -0.12051,-0.301131 -0.34652,-0.5724677 -0.6629,-0.6929727 z M 175.9637,3.312472 c -1.0546,0 -1.91336,-0.8587894 -1.91336,-1.9133958 0,-1.05460729 0.85876,-1.91333763 1.91336,-1.91333763 1.05461,0 1.91336,0.85873034 1.91336,1.91333763 0,1.0546064 -0.85875,1.9133958 -1.91336,1.9133958 z m 0.015,-0.3014547 1.59697,-1.5969851 c 0,0 0,-0.01472 0,-0.01472 0,-0.165463 -0.0302,-0.3314266 -0.0753,-0.49715462 l -2.03391,2.03387172 c 0.15066,0.06006 0.31638,0.07537 0.51224,0.07537 -0.015,0 -0.015,0 0,0 z m 1.16007,-2.69675539 -2.27494,2.27488279 c 0.10549,0.105402 0.24104,0.1957886 0.37665,0.2561436 l 2.1544,-2.15443572 c -0.0603,-0.13543267 -0.15065,-0.27145367 -0.25614,-0.37659067 z m -0.16573,-0.150448 c -0.10546,-0.09068 -0.21092,-0.15044767 -0.33145,-0.21109767 L 174.50226,2.076975 c 0.0603,0.1207106 0.1205,0.2411276 0.21092,0.3314556 z m -1.00941,-0.36157567 c -0.0302,0 -0.0603,0 -0.0904,0 l -1.52164,1.52161396 c 0,0.03091 0,0.06035 0,0.09039 0,0.1507421 0.0302,0.3011607 0.0603,0.4368877 l 1.98868,-1.98867866 c -0.13555,-0.04505 -0.28623,-0.06036 -0.4369,-0.06036 z m -1.53671,1.12991934 1.06967,-1.06968134 c -0.51224,0.165758 -0.91901,0.55742267 -1.06967,1.06968134 z m 3.08849,0.85875932 -1.1902,1.1901874 c 0.60263,-0.150448 1.0546,-0.6176907 1.1902,-1.1901874 z m 5.52914,2.7268455 c 0,3.6760803 -2.98302,6.6591306 -6.65908,6.6591306 -3.67605,0 -6.65908,-2.9830503 -6.65908,-6.6591306 0,-3.67602082 2.98303,-6.6590389 6.65908,-6.6590389 3.67606,0 6.65908,2.98301808 6.65908,6.6590389 z m -0.3013,0 c 0,-3.5102928 -2.84744,-6.3577022 -6.35777,-6.3577022 -3.51032,0 -6.35776,2.8474094 -6.35776,6.3577022 0,3.5103523 2.84744,6.3577926 6.35776,6.3577926 3.51033,0 6.35777,-2.8474403 6.35777,-6.3577926 z"
           id="path1-17"
           style="stroke-width:0.150657" /><g
           id="g10-5"
           transform="matrix(0.30964994,0,0,0.30964994,140.97352,-6.9265578)"><g
             id="g3-7"><g
               id="g2-4"><path
                 d="M 48.328,22.195 H 29.374 c -0.659,0 -1.193,-0.534 -1.193,-1.193 0,-0.659 0.534,-1.193 1.193,-1.193 h 18.954 c 0.659,0 1.193,0.534 1.193,1.193 10e-4,0.659 -0.534,1.193 -1.193,1.193 z"
                 id="path1-18" /><path
                 d="M 41.557,26.669 H 29.374 c -0.659,0 -1.193,-0.534 -1.193,-1.193 0,-0.659 0.534,-1.193 1.193,-1.193 h 12.183 c 0.659,0 1.193,0.534 1.193,1.193 0,0.659 -0.534,1.193 -1.193,1.193 z"
                 id="path2-5" /></g><path
               d="m 24.424,19.879 c -0.595,-0.594 -1.563,-0.596 -2.162,0.003 l -3.421,3.475 -1.376,-1.376 c -0.595,-0.595 -1.564,-0.595 -2.16,0 -0.288,0.288 -0.447,0.672 -0.447,1.08 0,0.408 0.159,0.791 0.447,1.079 l 2.459,2.459 c 0.288,0.289 0.672,0.448 1.08,0.448 0.408,0 0.792,-0.159 1.082,-0.45 l 4.499,-4.558 c 0.595,-0.596 0.595,-1.565 -0.001,-2.16 z"
               id="path3-9" /></g><g
             id="g5-7"><path
               d="M 48.328,35.125 H 29.374 c -0.659,0 -1.193,-0.534 -1.193,-1.193 0,-0.659 0.534,-1.193 1.193,-1.193 h 18.954 c 0.659,0 1.193,0.534 1.193,1.193 0,0.659 -0.534,1.193 -1.193,1.193 z"
               id="path4-5" /><path
               d="M 41.557,39.599 H 29.374 c -0.659,0 -1.193,-0.534 -1.193,-1.193 0,-0.659 0.534,-1.193 1.193,-1.193 h 12.183 c 0.659,0 1.193,0.534 1.193,1.193 0,0.659 -0.534,1.193 -1.193,1.193 z"
               id="path5-3" /></g><path
             d="m 24.424,32.809 c -0.595,-0.594 -1.563,-0.596 -2.162,0.003 l -3.421,3.475 -1.376,-1.376 c -0.595,-0.595 -1.564,-0.595 -2.16,0 -0.288,0.288 -0.447,0.672 -0.447,1.08 0,0.408 0.159,0.791 0.447,1.079 l 2.459,2.459 c 0.288,0.289 0.672,0.448 1.08,0.448 0.408,0 0.792,-0.159 1.082,-0.45 l 4.499,-4.558 c 0.595,-0.596 0.595,-1.565 -0.001,-2.16 z"
             id="path6-8" /><g
             id="g9-8"><g
               id="g8-3"><path
                 d="M 48.328,48.056 H 29.374 c -0.659,0 -1.193,-0.534 -1.193,-1.193 0,-0.659 0.534,-1.193 1.193,-1.193 h 18.954 c 0.659,0 1.193,0.534 1.193,1.193 0,0.659 -0.534,1.193 -1.193,1.193 z"
                 id="path7" /><path
                 d="M 41.557,52.53 H 29.374 c -0.659,0 -1.193,-0.534 -1.193,-1.193 0,-0.659 0.534,-1.193 1.193,-1.193 h 12.183 c 0.659,0 1.193,0.534 1.193,1.193 0,0.659 -0.534,1.193 -1.193,1.193 z"
                 id="path8-1" /></g><path
               d="m 19.865,43.713 c -2.97,0 -5.386,2.416 -5.386,5.386 0,2.97 2.416,5.386 5.386,5.386 2.97,0 5.386,-2.416 5.386,-5.386 0,-2.97 -2.417,-5.386 -5.386,-5.386 z m 0,8.446 c -1.687,0 -3.059,-1.372 -3.059,-3.059 0,-1.687 1.372,-3.059 3.059,-3.059 1.687,0 3.059,1.372 3.059,3.059 0,1.686 -1.373,3.059 -3.059,3.059 z"
               id="path9" /></g></g></g><rect
         style="fill:#000000;fill-opacity:0;stroke:#000000;stroke-width:1;stroke-linecap:round;stroke-linejoin:round;stroke-dasharray:none;stroke-opacity:1;paint-order:stroke fill markers"
         id="rect6"
         width="88.453392"
         height="59.136169"
         x="106.86354"
         y="-43.041946"
         ry="7.344852" /><path
         style="fill:none;stroke:#000000;stroke-width:1;stroke-linecap:butt;stroke-linejoin:miter;stroke-dasharray:none;stroke-opacity:1"
         d="m 107.0659,-32.834068 h 88.11285"
         id="path8"
         sodipodi:nodetypes="cc" /><g
         id="g8"
         transform="matrix(0.88123585,0,0,0.88123585,-90.23263,6.1155911)"><g
           id="g4"><circle
             cx="234.52505"
             cy="-50.080555"
             id="circle1-8"
             style="fill:#dc322f;stroke-width:0.650476"
             r="2.0054247" /><circle
             cx="239.96565"
             cy="-50.080555"
             id="circle2-3-1"
             style="fill:#b58900;stroke-width:0.650476"
             r="2.0054247" /><circle
             cx="245.40625"
             cy="-50.080555"
             id="circle3-2"
             style="fill:#2aa198;stroke-width:0.650476"
             r="2.0054247" /><rect
             x="298.67026"
             y="-51.398197"
             width="16.574816"
             height="2.6352859"
             id="rect3-6-9"
             style="stroke-width:1.04158"
             ry="0.64473772" /></g></g><g
         style="fill:#000000"
         id="g5"
         transform="matrix(0.1324841,0,0,0.1324841,127.4019,-25.283631)"><path
           d="m 47.903923,39.497965 c 0.574382,-2.43312 0.9,-5.1 0,-7.5 l 12.3,-6.7 c 1.2,1.2 2.7,2 4.6,2.2 h 0.5 c 1.7,0 3.3,-0.6 4.5,-1.7 1.4,-1.2 2.2,-2.9 2.4,-4.7 0.1,-1.8 -0.5,-3.6 -1.7,-5 -1.2,-1.4 -2.9,-2.2 -4.7,-2.4 -3.8,-0.3 -7.1,2.6 -7.4,6.4 v 0 c -0.1,0.9 0,1.7 0.3,2.5 l -12.3,6.7 c -0.6,-0.8 -1.4,-1.5 -2.3,-2.1 -1.3,-0.9 -2.8,-1.4 -4.2,-1.7 v -8.3 c 1.7,-0.4 3.2,-1.4 4.2,-2.9 1,-1.5 1.4,-3.4 1.1,-5.1999996 -0.3,-1.8 -1.4,-3.4 -2.9,-4.4 -1.5,-1 -3.4,-1.4 -5.2,-1.1 -1.8,0.3 -3.4,1.4 -4.4,2.9 -2.1,3.2 -1.3,7.4999996 1.9,9.5999996 0.7,0.5 1.5,0.8 2.3,1 v 8.3 c -2.5,0.4 -4.8,1.7 -6.5,3.8 l -12.3,-6.7 c 0.5,-1.6 0.4,-3.4 -0.4,-5 -0.8,-1.7 -2.2,-2.9 -4,-3.5 -1.8,-0.6 -3.599999,-0.5 -5.2999986,0.3 -3.4,1.7 -4.9,5.8 -3.2,9.3 1.2,2.5 3.7,3.9 6.2999986,3.9 1,0 2,-0.2 3,-0.7 0.8,-0.4 1.5,-0.9 2,-1.5 l 12.3,6.7 c -1,2.5 -0.627103,5.07993 0,7.5 0.258257,0.99665 0.861495,1.89234 1.5,2.7 0.643837,0.8144 1.4,1.5 2.3,2.1 1.3,0.9 2.722195,1.38823 4.2,1.7 1.044202,0.2203 2.165698,0.36288 3.2,0.1 2.432421,-0.61824 4.784287,-1.96827 6.5,-3.8 0.713353,-0.76159 1.160253,-1.78442 1.4,-2.8 z m 13.6,-19.1 v 0 c 0.1,-2.1 2,-3.6 4,-3.5 1,0.1 1.9,0.5 2.6,1.3 0.7,0.8 1,1.7 0.9,2.7 -0.1,1 -0.5,1.9 -1.3,2.6 -0.8,0.7 -1.7,1 -2.7,0.9 -2.1,-0.1 -3.6,-1.9 -3.5,-4 z m -48.5,3.6 c -1.9,0.9 -4.0999986,0.1 -4.9999986,-1.7 -0.9,-1.9 -0.1,-4.1 1.7,-5 0.4999996,-0.3 1.0999986,-0.4 1.5999986,-0.4 0.4,0 0.8,0.1 1.2,0.2 1,0.3 1.7,1 2.2,1.9 0.9,1.9 0.1,4.1 -1.7,5 z m 22.2,-15.5999996 c 0.6,-0.8 1.4,-1.4 2.4,-1.6 0.2,0 0.5,-0.1 0.7,-0.1 0.7,0 1.5,0.2 2.1,0.7 1.7,1.2 2.2,3.4999996 1,5.1999996 -0.6,0.8 -1.4,1.4 -2.4,1.6 -1,0.2 -2,0 -2.8,-0.6 -1.7,-1.2 -2.2,-3.5 -1,-5.1999996 z m -0.9,33.3999996 c -3.3,-2.2 -4.2,-6.7 -1.9,-10 2.2,-3.3 6.7,-4.2 10,-1.9 3.3,2.2 4.2,6.7 1.9,10 -2.3,3.2 -6.8,4.1 -10,1.9 z"
           id="path6-6"
           inkscape:connector-curvature="0"
           sodipodi:nodetypes="acccsccsccccccccsssscccccccsccssccaacaaaacccssscccccscccccsccsccccccc"
           style="fill:#008080;stroke:#f9f9f9" /><rect
           style="color:#000000;clip-rule:nonzero;display:inline;overflow:visible;visibility:visible;opacity:1;isolation:auto;mix-blend-mode:normal;color-interpolation:sRGB;color-interpolation-filters:linearRGB;solid-color:#000000;solid-opacity:1;vector-effect:none;fill:#008080;fill-opacity:0.784314;fill-rule:nonzero;stroke:#f9f9f9;stroke-width:1;stroke-linecap:butt;stroke-linejoin:miter;stroke-miterlimit:4;stroke-dasharray:none;stroke-dashoffset:0;stroke-opacity:1;marker:none;paint-order:markers stroke fill;color-rendering:auto;image-rendering:auto;shape-rendering:auto;text-rendering:auto;enable-background:accumulate"
           id="rect883"
           width="20"
           height="5"
           x="3.5"
           y="57.500793"
           rx="1"
           ry="1" /><rect
           ry="1"
           rx="1.0000001"
           y="64.500778"
           x="3.5"
           height="4"
           width="20"
           id="rect885"
           style="color:#000000;clip-rule:nonzero;display:inline;overflow:visible;visibility:visible;opacity:1;isolation:auto;mix-blend-mode:normal;color-interpolation:sRGB;color-interpolation-filters:linearRGB;solid-color:#000000;solid-opacity:1;vector-effect:none;fill:#008080;fill-opacity:0.686275;fill-rule:nonzero;stroke:#f9f9f9;stroke-width:1;stroke-linecap:butt;stroke-linejoin:miter;stroke-miterlimit:4;stroke-dasharray:none;stroke-dashoffset:0;stroke-opacity:1;marker:none;paint-order:markers stroke fill;color-rendering:auto;image-rendering:auto;shape-rendering:auto;text-rendering:auto;enable-background:accumulate" /><rect
           style="color:#000000;clip-rule:nonzero;display:inline;overflow:visible;visibility:visible;opacity:1;isolation:auto;mix-blend-mode:normal;color-interpolation:sRGB;color-interpolation-filters:linearRGB;solid-color:#000000;solid-opacity:1;vector-effect:none;fill:#008080;fill-opacity:0.588235;fill-rule:nonzero;stroke:#f9f9f9;stroke-width:1;stroke-linecap:butt;stroke-linejoin:miter;stroke-miterlimit:4;stroke-dasharray:none;stroke-dashoffset:0;stroke-opacity:1;marker:none;paint-order:markers stroke fill;color-rendering:auto;image-rendering:auto;shape-rendering:auto;text-rendering:auto;enable-background:accumulate"
           id="rect887"
           width="20"
           height="3"
           x="3.5"
           y="70.500793"
           rx="1"
           ry="1" /><rect
           ry="1"
           rx="1"
           y="57.500793"
           x="53.214676"
           height="5"
           width="20"
           id="rect963"
           style="color:#000000;clip-rule:nonzero;display:inline;overflow:visible;visibility:visible;opacity:1;isolation:auto;mix-blend-mode:normal;color-interpolation:sRGB;color-interpolation-filters:linearRGB;solid-color:#000000;solid-opacity:1;vector-effect:none;fill:#008080;fill-opacity:0.784314;fill-rule:nonzero;stroke:#f9f9f9;stroke-width:1;stroke-linecap:butt;stroke-linejoin:miter;stroke-miterlimit:4;stroke-dasharray:none;stroke-dashoffset:0;stroke-opacity:1;marker:none;paint-order:markers stroke fill;color-rendering:auto;image-rendering:auto;shape-rendering:auto;text-rendering:auto;enable-background:accumulate" /><rect
           style="color:#000000;clip-rule:nonzero;display:inline;overflow:visible;visibility:visible;opacity:1;isolation:auto;mix-blend-mode:normal;color-interpolation:sRGB;color-interpolation-filters:linearRGB;solid-color:#000000;solid-opacity:1;vector-effect:none;fill:#008080;fill-opacity:0.686275;fill-rule:nonzero;stroke:#f9f9f9;stroke-width:1;stroke-linecap:butt;stroke-linejoin:miter;stroke-miterlimit:4;stroke-dasharray:none;stroke-dashoffset:0;stroke-opacity:1;marker:none;paint-order:markers stroke fill;color-rendering:auto;image-rendering:auto;shape-rendering:auto;text-rendering:auto;enable-background:accumulate"
           id="rect965"
           width="20"
           height="4"
           x="53.214676"
           y="64.500778"
           rx="1.0000001"
           ry="1" /><rect
           ry="1"
           rx="1"
           y="70.500793"
           x="53.214676"
           height="3"
           width="20"
           id="rect967"
           style="color:#000000;clip-rule:nonzero;display:inline;overflow:visible;visibility:visible;opacity:1;isolation:auto;mix-blend-mode:normal;color-interpolation:sRGB;color-interpolation-filters:linearRGB;solid-color:#000000;solid-opacity:1;vector-effect:none;fill:#008080;fill-opacity:0.588235;fill-rule:nonzero;stroke:#f9f9f9;stroke-width:1;stroke-linecap:butt;stroke-linejoin:miter;stroke-miterlimit:4;stroke-dasharray:none;stroke-dashoffset:0;stroke-opacity:1;marker:none;paint-order:markers stroke fill;color-rendering:auto;image-rendering:auto;shape-rendering:auto;text-rendering:auto;enable-background:accumulate" /><rect
           style="color:#000000;clip-rule:nonzero;display:inline;overflow:visible;visibility:visible;opacity:1;isolation:auto;mix-blend-mode:normal;color-interpolation:sRGB;color-interpolation-filters:linearRGB;solid-color:#000000;solid-opacity:1;vector-effect:none;fill:#008080;fill-opacity:0.784314;fill-rule:nonzero;stroke:#f9f9f9;stroke-width:1;stroke-linecap:butt;stroke-linejoin:miter;stroke-miterlimit:4;stroke-dasharray:none;stroke-dashoffset:0;stroke-opacity:1;marker:none;paint-order:markers stroke fill;color-rendering:auto;image-rendering:auto;shape-rendering:auto;text-rendering:auto;enable-background:accumulate"
           id="rect973"
           width="20"
           height="5"
           x="28.357338"
           y="57.500793"
           rx="1"
           ry="1" /><rect
           ry="1"
           rx="1.0000001"
           y="64.500778"
           x="28.357338"
           height="4"
           width="20"
           id="rect975"
           style="color:#000000;clip-rule:nonzero;display:inline;overflow:visible;visibility:visible;opacity:1;isolation:auto;mix-blend-mode:normal;color-interpolation:sRGB;color-interpolation-filters:linearRGB;solid-color:#000000;solid-opacity:1;vector-effect:none;fill:#008080;fill-opacity:0.686275;fill-rule:nonzero;stroke:#f9f9f9;stroke-width:1;stroke-linecap:butt;stroke-linejoin:miter;stroke-miterlimit:4;stroke-dasharray:none;stroke-dashoffset:0;stroke-opacity:1;marker:none;paint-order:markers stroke fill;color-rendering:auto;image-rendering:auto;shape-rendering:auto;text-rendering:auto;enable-background:accumulate" /><rect
           style="color:#000000;clip-rule:nonzero;display:inline;overflow:visible;visibility:visible;opacity:1;isolation:auto;mix-blend-mode:normal;color-interpolation:sRGB;color-interpolation-filters:linearRGB;solid-color:#000000;solid-opacity:1;vector-effect:none;fill:#008080;fill-opacity:0.588235;fill-rule:nonzero;stroke:#f9f9f9;stroke-width:1;stroke-linecap:butt;stroke-linejoin:miter;stroke-miterlimit:4;stroke-dasharray:none;stroke-dashoffset:0;stroke-opacity:1;marker:none;paint-order:markers stroke fill;color-rendering:auto;image-rendering:auto;shape-rendering:auto;text-rendering:auto;enable-background:accumulate"
           id="rect977"
           width="20"
           height="3"
           x="28.357338"
           y="70.500793"
           rx="1"
           ry="1" /><rect
           ry="1"
           rx="1"
           y="49.500793"
           x="3.5"
           height="6"
           width="20"
           id="rect995"
           style="color:#000000;clip-rule:nonzero;display:inline;overflow:visible;visibility:visible;opacity:1;isolation:auto;mix-blend-mode:normal;color-interpolation:sRGB;color-interpolation-filters:linearRGB;solid-color:#000000;solid-opacity:1;vector-effect:none;fill:#008080;fill-opacity:1;fill-rule:nonzero;stroke:#f9f9f9;stroke-width:1;stroke-linecap:butt;stroke-linejoin:miter;stroke-miterlimit:4;stroke-dasharray:none;stroke-dashoffset:0;stroke-opacity:1;marker:none;paint-order:markers stroke fill;color-rendering:auto;image-rendering:auto;shape-rendering:auto;text-rendering:auto;enable-background:accumulate" /><rect
           style="color:#000000;clip-rule:nonzero;display:inline;overflow:visible;visibility:visible;opacity:1;isolation:auto;mix-blend-mode:normal;color-interpolation:sRGB;color-interpolation-filters:linearRGB;solid-color:#000000;solid-opacity:1;vector-effect:none;fill:#008080;fill-opacity:1;fill-rule:nonzero;stroke:#f9f9f9;stroke-width:1;stroke-linecap:butt;stroke-linejoin:miter;stroke-miterlimit:4;stroke-dasharray:none;stroke-dashoffset:0;stroke-opacity:1;marker:none;paint-order:markers stroke fill;color-rendering:auto;image-rendering:auto;shape-rendering:auto;text-rendering:auto;enable-background:accumulate"
           id="rect997"
           width="20"
           height="6"
           x="53.214676"
           y="49.500793"
           rx="1"
           ry="1" /><rect
           ry="1"
           rx="1"
           y="49.500793"
           x="28.357338"
           height="6"
           width="20"
           id="rect999"
           style="color:#000000;clip-rule:nonzero;display:inline;overflow:visible;visibility:visible;opacity:1;isolation:auto;mix-blend-mode:normal;color-interpolation:sRGB;color-interpolation-filters:linearRGB;solid-color:#000000;solid-opacity:1;vector-effect:none;fill:#008080;fill-opacity:1;fill-rule:nonzero;stroke:#f9f9f9;stroke-width:1;stroke-linecap:butt;stroke-linejoin:miter;stroke-miterlimit:4;stroke-dasharray:none;stroke-dashoffset:0;stroke-opacity:1;marker:none;paint-order:markers stroke fill;color-rendering:auto;image-rendering:auto;shape-rendering:auto;text-rendering:auto;enable-background:accumulate" /><g
           aria-label="BEDbase"
           style="font-style:normal;font-variant:normal;font-weight:normal;font-stretch:normal;font-size:78.3097px;line-height:1.25;font-family:sans-serif;-inkscape-font-specification:'sans-serif, Normal';font-variant-ligatures:normal;font-variant-position:normal;font-variant-caps:normal;font-variant-numeric:normal;font-variant-alternates:normal;font-feature-settings:normal;text-indent:0;text-align:start;text-decoration:none;text-decoration-line:none;text-decoration-style:solid;text-decoration-color:#000000;letter-spacing:0px;word-spacing:0px;text-transform:none;writing-mode:lr-tb;direction:ltr;text-orientation:mixed;dominant-baseline:auto;baseline-shift:baseline;text-anchor:start;white-space:normal;shape-padding:0;opacity:1;vector-effect:none;fill:#008080;fill-opacity:1;stroke:none;stroke-width:7.34153;stroke-linecap:butt;stroke-linejoin:miter;stroke-miterlimit:4;stroke-dasharray:none;stroke-dashoffset:0;stroke-opacity:1"
           id="text835"><path
             d="m 119.43956,54.854476 c 0,-6.421392 -3.68056,-11.43321 -9.86702,-13.156022 3.44562,-2.505909 5.16844,-5.951534 5.16844,-10.180255 0,-4.072102 -1.64451,-8.222514 -4.8552,-10.885042 -3.28901,-2.740838 -7.67435,-3.289006 -11.82476,-3.289006 h -9.397158 v 52.23254 h 12.999398 c 4.69858,0 8.77069,-0.548168 12.52955,-3.602244 3.36731,-2.740838 5.24675,-6.734631 5.24675,-11.119971 z M 109.02437,31.596508 c 0,2.505909 -0.78309,5.168438 -2.74084,6.81294 -2.19267,1.879432 -4.77689,1.957742 -7.439413,1.957742 H 94.458776 V 22.825827 h 4.54196 c 5.951534,0 10.023634,2.27098 10.023634,8.770681 z m 4.62027,23.101348 c 0,2.740838 -1.17464,5.481676 -3.36731,7.204489 -2.50591,2.036051 -5.40337,2.27098 -8.53576,2.27098 H 94.458776 V 45.379008 h 5.951534 c 2.89746,0 6.26477,0.07831 8.84899,1.566193 2.74084,1.566193 4.38534,4.620269 4.38534,7.752655 z"
             style="font-style:normal;font-variant:normal;font-weight:bold;font-stretch:normal;font-family:'FuturaEF Book';-inkscape-font-specification:'FuturaEF Book,  Bold';fill:#008080;fill-opacity:1;stroke-width:7.34153"
             id="path841" /><path
             d="M 157.18471,69.576691 V 64.173325 H 135.9628 v -20.43882 h 20.67375 V 38.331139 H 135.9628 V 22.825827 h 21.22191 v -5.481676 h -27.01683 v 52.23254 z"
             style="font-style:normal;font-variant:normal;font-weight:bold;font-stretch:normal;font-family:'FuturaEF Book';-inkscape-font-specification:'FuturaEF Book,  Bold';fill:#008080;fill-opacity:1;stroke-width:7.34153"
             id="path843" /><path
             d="m 206.7546,43.499576 c 0,-7.830966 -2.89745,-14.957144 -8.9273,-20.047272 -5.7166,-4.776889 -11.98137,-6.108153 -19.26417,-6.108153 h -10.65012 v 52.23254 h 10.57181 c 7.36111,0 13.31264,-1.174645 19.10755,-6.029844 6.18647,-5.168437 9.16223,-12.059686 9.16223,-20.047271 z m -5.87322,0 c 0,6.108153 -2.4276,11.903067 -7.12618,15.89686 -4.30703,3.680553 -9.39716,4.776889 -14.95714,4.776889 h -5.09013 V 22.825827 h 5.09013 c 12.68616,0 22.08332,7.517727 22.08332,20.673749 z"
             style="font-style:normal;font-variant:normal;font-weight:bold;font-stretch:normal;font-family:'FuturaEF Book';-inkscape-font-specification:'FuturaEF Book,  Bold';fill:#008080;fill-opacity:1;stroke-width:7.34153"
             id="path845" /><path
             d="m 248.49361,53.288283 c 0,-9.08392 -6.02985,-16.993195 -15.58362,-16.993195 -4.69858,0 -8.37914,1.801122 -11.3549,5.403366 V 12.488953 h -5.55999 v 57.087738 h 5.55999 v -4.54196 c 2.89745,3.602244 6.65632,5.481676 11.27659,5.481676 9.63208,0 15.66193,-8.065895 15.66193,-17.228124 z m -5.71661,0 c 0,6.343082 -3.91548,12.137996 -10.72842,12.137996 -6.81294,0 -10.80673,-5.638295 -10.80673,-12.059687 0,-6.499701 3.91548,-11.981377 10.80673,-11.981377 6.65632,0 10.72842,5.638295 10.72842,11.903068 z"
             style="font-style:normal;font-variant:normal;font-weight:bold;font-stretch:normal;font-family:'FuturaEF Book';-inkscape-font-specification:'FuturaEF Book,  Bold';fill:#008080;fill-opacity:1;stroke-width:7.34153"
             id="path847" /><path
             d="M 287.41336,69.576691 V 37.078184 h -5.55998 v 4.62027 c -3.05408,-3.680554 -6.57801,-5.403366 -11.3549,-5.403366 -9.55378,0 -15.58362,7.752655 -15.58362,16.914885 0,9.162229 5.95153,17.306434 15.66193,17.306434 4.69858,0 8.30082,-1.879432 11.27659,-5.481676 v 4.54196 z m -5.24674,-16.366718 c 0,6.499701 -3.83717,12.216306 -10.80673,12.216306 -6.81294,0 -10.72843,-5.873224 -10.72843,-12.216306 0,-6.264772 4.07211,-11.903068 10.72843,-11.903068 6.81294,0 10.80673,5.481676 10.80673,11.903068 z"
             style="font-style:normal;font-variant:normal;font-weight:bold;font-stretch:normal;font-family:'FuturaEF Book';-inkscape-font-specification:'FuturaEF Book,  Bold';fill:#008080;fill-opacity:1;stroke-width:7.34153"
             id="path849" /><path
             d="m 317.95399,59.866294 c 0,-10.650113 -15.03545,-9.16223 -15.03545,-14.878835 0,-2.036051 1.95774,-3.602244 3.91548,-3.602244 2.19267,0 3.60224,1.409574 4.54196,3.210696 l 4.62027,-2.427599 c -1.87943,-3.602244 -4.77689,-5.873224 -8.9273,-5.873224 -5.16844,0 -9.47547,3.758863 -9.47547,9.08392 0,5.716604 4.93351,7.596036 9.39716,9.553777 2.58422,1.096335 5.24675,2.114361 5.24675,5.403366 0,3.054077 -2.34929,5.090128 -5.32506,5.090128 -3.52394,0 -5.24675,-2.34929 -6.57801,-5.246747 l -4.8552,2.036051 c 1.95774,5.168437 5.7166,8.300824 11.3549,8.300824 6.10815,0 11.11997,-4.385341 11.11997,-10.650113 z"
             style="font-style:normal;font-variant:normal;font-weight:bold;font-stretch:normal;font-family:'FuturaEF Book';-inkscape-font-specification:'FuturaEF Book,  Bold';fill:#008080;fill-opacity:1;stroke-width:7.34153"
             id="path851" /><path
             d="m 354.60279,54.462927 v -1.096335 c 0,-9.397158 -5.55998,-17.071504 -15.50531,-17.071504 -9.86701,0 -15.74024,7.830965 -15.74024,17.228124 0,9.553777 6.18646,16.993195 16.05348,16.993195 6.81294,0 11.58983,-3.367316 14.87883,-9.24054 l -4.69857,-2.584218 c -2.4276,3.993792 -5.01182,6.73463 -10.02364,6.73463 -6.42139,0 -10.02364,-5.011818 -10.33687,-10.963352 z m -5.87322,-4.698579 h -19.10756 c 0.86141,-4.698579 4.77689,-8.379133 9.63209,-8.379133 5.01182,0 8.53575,3.680554 9.47547,8.379133 z"
             style="font-style:normal;font-variant:normal;font-weight:bold;font-stretch:normal;font-family:'FuturaEF Book';-inkscape-font-specification:'FuturaEF Book,  Bold';fill:#008080;fill-opacity:1;stroke-width:7.34153"
             id="path853" /></g></g></g></g><style
     id="style2"
     type="text/css">
	.st0{fill:none;}
</style><style
     id="style2-6"
     type="text/css">
	.st0{fill:none;}
</style><style
     id="style2-5"
     type="text/css">
	.st0{fill:none;}
</style><style
     id="style2-6-6"
     type="text/css">
	.st0{fill:none;}
</style><style
     type="text/css"
     id="style2-7">
	.st0{fill:none;}
</style><style
     type="text/css"
     id="style2-3">
	.st0{fill:none;}
</style></svg>
