<?xml version="1.0" encoding="UTF-8" standalone="no"?>
<!-- Created with Inkscape (http://www.inkscape.org/) -->

<svg
   width="45mm"
   height="58mm"
   viewBox="0 0 45 58"
   version="1.1"
   id="svg1"
   inkscape:version="1.3 (0e150ed, 2023-07-21)"
   sodipodi:docname="bigbed.svg"
   xmlns:inkscape="http://www.inkscape.org/namespaces/inkscape"
   xmlns:sodipodi="http://sodipodi.sourceforge.net/DTD/sodipodi-0.dtd"
   xmlns="http://www.w3.org/2000/svg"
   xmlns:svg="http://www.w3.org/2000/svg">
  <sodipodi:namedview
     id="namedview1"
     pagecolor="#ffffff"
     bordercolor="#000000"
     borderopacity="0.25"
     inkscape:showpageshadow="2"
     inkscape:pageopacity="0.0"
     inkscape:pagecheckerboard="0"
     inkscape:deskcolor="#d1d1d1"
     inkscape:document-units="mm"
     inkscape:zoom="0.89958333"
     inkscape:cx="63.362668"
     inkscape:cy="560.81519"
     inkscape:window-width="1392"
     inkscape:window-height="1246"
     inkscape:window-x="0"
     inkscape:window-y="730"
     inkscape:window-maximized="0"
     inkscape:current-layer="layer1" />
  <defs
     id="defs1" />
  <g
     inkscape:label="Layer 1"
     inkscape:groupmode="layer"
     id="layer1">
    <g
       id="g4"
       transform="translate(-43.095403,-54.519304)">
      <g
         id="g9476-6-04-3"
         transform="matrix(1.5072906,4.2376852e-8,-6.6434131e-8,1.4974039,36.929291,63.21856)">
        <path
           id="path9459-8-8-3"
           d="m 31.863437,4.3238523 -7.66673,-7.7084535 A 4.0055504,4.027275 1.5528537e-8 0 0 21.364508,-4.563995 H 11.007845 A 6.0078449,6.0404293 1.5526399e-8 0 0 5.0000001,1.4764343 V 25.638151 a 6.0078449,6.0404293 1.5526399e-8 0 0 6.0078449,6.04043 h 16.02092 a 6.0078449,6.0404293 1.5526399e-8 0 0 6.007846,-6.040429 V 7.1714114 A 4.0048695,4.0265904 1.5529351e-8 0 0 31.863437,4.3238523 Z m -8.839902,-6.0405501 7.180876,7.220085 H 25.02615 A 2.0049179,2.0157919 1.5519886e-8 0 1 23.023535,3.4899107 Z m 8.01046,27.3548498 a 4.009836,4.0315839 1.5526196e-8 0 1 -4.00523,4.026953 h -16.02092 a 4.009836,4.0315839 1.5526196e-8 0 1 -4.00523,-4.026954 l 1e-7,-24.1617167 A 4.0097558,4.0315034 1.5521463e-8 0 1 11.007845,-2.5505186 H 21.02092 v 6.0404293 a 4.0052299,4.0269529 1.5522074e-8 0 0 4.00523,4.0269529 h 6.007845 z"
           inkscape:connector-curvature="0"
           style="fill:#000000;fill-opacity:1;stroke:#ffffff;stroke-width:1.00976;stroke-linecap:square;stroke-miterlimit:4;stroke-dasharray:none;stroke-opacity:1;paint-order:markers fill stroke" />
      </g>
      <rect
         style="fill:#162d50;fill-opacity:1;stroke:none;stroke-width:0.573806;stroke-miterlimit:10;stroke-dasharray:1.72142, 2.86903;stroke-dashoffset:0;stroke-opacity:1"
         id="rect9489-3-0-3"
         width="34.542446"
         height="9.8285913"
         x="48.340755"
         y="94.976471" />
      <g
         id="g9564-5-42-8"
         transform="matrix(-0.00871426,-1.0323959,1.0035971,-0.00896434,-51.406867,230.09819)">
        <g
           transform="matrix(0.64288412,-0.00310086,-0.00310086,0.99997308,51.027162,0.22795525)"
           id="g9487-8-9-0">
          <rect
             style="fill:#000000;fill-opacity:1;stroke:none;stroke-width:0.529167;stroke-miterlimit:10;stroke-dasharray:1.5875, 2.64583;stroke-dashoffset:0;stroke-opacity:1"
             id="rect9478-8-6-4"
             width="8.174119"
             height="3.0115175"
             x="102.54849"
             y="-153.24789"
             transform="rotate(90.497491)" />
          <rect
             transform="rotate(90.497491)"
             y="-153.24789"
             x="112.65859"
             height="3.0115175"
             width="8.174119"
             id="rect9480-7-1-7"
             style="fill:#000000;fill-opacity:1;stroke:none;stroke-width:0.529167;stroke-miterlimit:10;stroke-dasharray:1.5875, 2.64583;stroke-dashoffset:0;stroke-opacity:1" />
          <rect
             style="fill:#000000;fill-opacity:1;stroke:none;stroke-width:0.529167;stroke-miterlimit:10;stroke-dasharray:1.5875, 2.64583;stroke-dashoffset:0;stroke-opacity:1"
             id="rect9482-2-0-6"
             width="8.174119"
             height="3.0115175"
             x="122.76869"
             y="-153.24789"
             transform="rotate(90.497491)" />
        </g>
        <g
           id="g9506-3-4-8"
           transform="matrix(0.64288412,-0.00310086,-0.00310086,0.99997308,48.101797,0.20255414)">
          <rect
             transform="rotate(90.497491)"
             y="-153.24789"
             x="102.54849"
             height="3.0115175"
             width="8.174119"
             id="rect9500-4-2-9"
             style="fill:#000000;fill-opacity:1;stroke:none;stroke-width:0.529167;stroke-miterlimit:10;stroke-dasharray:1.5875, 2.64583;stroke-dashoffset:0;stroke-opacity:1" />
          <rect
             style="fill:#000000;fill-opacity:1;stroke:none;stroke-width:0.529167;stroke-miterlimit:10;stroke-dasharray:1.5875, 2.64583;stroke-dashoffset:0;stroke-opacity:1"
             id="rect9502-7-2-0"
             width="8.174119"
             height="3.0115175"
             x="112.65859"
             y="-153.24789"
             transform="rotate(90.497491)" />
          <rect
             transform="rotate(90.497491)"
             y="-153.24789"
             x="122.76869"
             height="3.0115175"
             width="8.174119"
             id="rect9504-5-2-6"
             style="fill:#000000;fill-opacity:1;stroke:none;stroke-width:0.529167;stroke-miterlimit:10;stroke-dasharray:1.5875, 2.64583;stroke-dashoffset:0;stroke-opacity:1" />
        </g>
        <g
           transform="matrix(0.64288412,-0.00310086,-0.00310086,0.99997308,45.176431,0.17715302)"
           id="g9514-1-05-8">
          <rect
             style="fill:#000000;fill-opacity:1;stroke:none;stroke-width:0.529167;stroke-miterlimit:10;stroke-dasharray:1.5875, 2.64583;stroke-dashoffset:0;stroke-opacity:1"
             id="rect9508-0-5-7"
             width="8.174119"
             height="3.0115175"
             x="102.54849"
             y="-153.24789"
             transform="rotate(90.497491)" />
          <rect
             transform="rotate(90.497491)"
             y="-153.24789"
             x="112.65859"
             height="3.0115175"
             width="8.174119"
             id="rect9510-9-2-9"
             style="fill:#000000;fill-opacity:1;stroke:none;stroke-width:0.529167;stroke-miterlimit:10;stroke-dasharray:1.5875, 2.64583;stroke-dashoffset:0;stroke-opacity:1" />
          <rect
             style="fill:#000000;fill-opacity:1;stroke:none;stroke-width:0.529167;stroke-miterlimit:10;stroke-dasharray:1.5875, 2.64583;stroke-dashoffset:0;stroke-opacity:1"
             id="rect9512-6-9-0"
             width="8.174119"
             height="3.0115175"
             x="122.76869"
             y="-153.24789"
             transform="rotate(90.497491)" />
        </g>
        <g
           id="g9522-5-0-3"
           transform="matrix(0.64288412,-0.00310086,-0.00310086,0.99997308,42.251066,0.15175192)">
          <rect
             transform="rotate(90.497491)"
             y="-153.24789"
             x="102.54849"
             height="3.0115175"
             width="8.174119"
             id="rect9516-0-2-3"
             style="fill:#000000;fill-opacity:1;stroke:none;stroke-width:0.529167;stroke-miterlimit:10;stroke-dasharray:1.5875, 2.64583;stroke-dashoffset:0;stroke-opacity:1" />
          <rect
             style="fill:#000000;fill-opacity:1;stroke:none;stroke-width:0.529167;stroke-miterlimit:10;stroke-dasharray:1.5875, 2.64583;stroke-dashoffset:0;stroke-opacity:1"
             id="rect9518-8-8-3"
             width="8.174119"
             height="3.0115175"
             x="112.65859"
             y="-153.24789"
             transform="rotate(90.497491)" />
          <rect
             transform="rotate(90.497491)"
             y="-153.24789"
             x="122.76869"
             height="3.0115175"
             width="8.174119"
             id="rect9520-8-3-7"
             style="fill:#000000;fill-opacity:1;stroke:none;stroke-width:0.529167;stroke-miterlimit:10;stroke-dasharray:1.5875, 2.64583;stroke-dashoffset:0;stroke-opacity:1" />
        </g>
        <g
           transform="matrix(0.64288412,-0.00310086,-0.00310086,0.99997308,39.325701,0.12635081)"
           id="g9530-4-8-3">
          <rect
             style="fill:#000000;fill-opacity:1;stroke:none;stroke-width:0.529167;stroke-miterlimit:10;stroke-dasharray:1.5875, 2.64583;stroke-dashoffset:0;stroke-opacity:1"
             id="rect9524-3-0-2"
             width="8.174119"
             height="3.0115175"
             x="102.54849"
             y="-153.24789"
             transform="rotate(90.497491)" />
          <rect
             transform="rotate(90.497491)"
             y="-153.24789"
             x="112.65859"
             height="3.0115175"
             width="8.174119"
             id="rect9526-0-4-6"
             style="fill:#000000;fill-opacity:1;stroke:none;stroke-width:0.529167;stroke-miterlimit:10;stroke-dasharray:1.5875, 2.64583;stroke-dashoffset:0;stroke-opacity:1" />
          <rect
             style="fill:#000000;fill-opacity:1;stroke:none;stroke-width:0.529167;stroke-miterlimit:10;stroke-dasharray:1.5875, 2.64583;stroke-dashoffset:0;stroke-opacity:1"
             id="rect9528-8-0-5"
             width="8.174119"
             height="3.0115175"
             x="122.76869"
             y="-153.24789"
             transform="rotate(90.497491)" />
        </g>
        <g
           id="g9538-2-9-2"
           transform="matrix(0.64288412,-0.00310086,-0.00310086,0.99997308,36.400336,0.10094969)">
          <rect
             transform="rotate(90.497491)"
             y="-153.24789"
             x="102.54849"
             height="3.0115175"
             width="8.174119"
             id="rect9532-5-1-6"
             style="fill:#000000;fill-opacity:1;stroke:none;stroke-width:0.529167;stroke-miterlimit:10;stroke-dasharray:1.5875, 2.64583;stroke-dashoffset:0;stroke-opacity:1" />
          <rect
             style="fill:#000000;fill-opacity:1;stroke:none;stroke-width:0.529167;stroke-miterlimit:10;stroke-dasharray:1.5875, 2.64583;stroke-dashoffset:0;stroke-opacity:1"
             id="rect9534-7-9-5"
             width="8.174119"
             height="3.0115175"
             x="112.65859"
             y="-153.24789"
             transform="rotate(90.497491)" />
          <rect
             transform="rotate(90.497491)"
             y="-153.24789"
             x="122.76869"
             height="3.0115175"
             width="8.174119"
             id="rect9536-1-62-8"
             style="fill:#000000;fill-opacity:1;stroke:none;stroke-width:0.529167;stroke-miterlimit:10;stroke-dasharray:1.5875, 2.64583;stroke-dashoffset:0;stroke-opacity:1" />
        </g>
      </g>
      <g
         aria-label=".bigbed"
         transform="matrix(0.26458333,0,0,0.26458333,-23.624074,-416.13866)"
         style="font-style:normal;font-weight:normal;font-size:32px;line-height:1.25;font-family:sans-serif;text-align:center;letter-spacing:0px;word-spacing:0px;text-anchor:middle;fill:#000000;fill-opacity:1;stroke:none"
         id="flowRoot20943-5-7">
        <path
           d="m 280.62402,1955.9844 h 3.29688 v 3.9687 h -3.29688 z"
           style="font-size:32px;text-align:center;text-anchor:middle;fill:#ffffff"
           id="path50820" />
        <path
           d="m 302.95215,1951.2188 q 0,-3.1719 -1.3125,-4.9688 -1.29688,-1.8125 -3.57813,-1.8125 -2.28125,0 -3.59375,1.8125 -1.29687,1.7969 -1.29687,4.9688 0,3.1718 1.29687,4.9843 1.3125,1.7969 3.59375,1.7969 2.28125,0 3.57813,-1.7969 1.3125,-1.8125 1.3125,-4.9843 z m -9.78125,-6.1094 q 0.90625,-1.5625 2.28125,-2.3125 1.39062,-0.7656 3.3125,-0.7656 3.1875,0 5.17187,2.5312 2,2.5313 2,6.6563 0,4.125 -2,6.6562 -1.98437,2.5313 -5.17187,2.5313 -1.92188,0 -3.3125,-0.75 -1.375,-0.7657 -2.28125,-2.3282 v 2.625 h -2.89063 v -24.3125 h 2.89063 z"
           style="font-size:32px;text-align:center;text-anchor:middle;fill:#ffffff"
           id="path50822" />
        <path
           d="m 310.70215,1942.4531 h 2.875 v 17.5 h -2.875 z m 0,-6.8125 h 2.875 v 3.6407 h -2.875 z"
           style="font-size:32px;text-align:center;text-anchor:middle;fill:#ffffff"
           id="path50824" />
        <path
           d="m 331.1084,1951 q 0,-3.125 -1.29688,-4.8437 -1.28125,-1.7188 -3.60937,-1.7188 -2.3125,0 -3.60938,1.7188 -1.28125,1.7187 -1.28125,4.8437 0,3.1094 1.28125,4.8281 1.29688,1.7188 3.60938,1.7188 2.32812,0 3.60937,-1.7188 1.29688,-1.7187 1.29688,-4.8281 z m 2.875,6.7813 q 0,4.4687 -1.98438,6.6406 -1.98437,2.1875 -6.07812,2.1875 -1.51563,0 -2.85938,-0.2344 -1.34375,-0.2187 -2.60937,-0.6875 v -2.7969 q 1.26562,0.6875 2.5,1.0157 1.23437,0.3281 2.51562,0.3281 2.82813,0 4.23438,-1.4844 1.40625,-1.4687 1.40625,-4.4531 v -1.4219 q -0.89063,1.5469 -2.28125,2.3125 -1.39063,0.7656 -3.32813,0.7656 -3.21875,0 -5.1875,-2.4531 -1.96875,-2.4531 -1.96875,-6.5 0,-4.0625 1.96875,-6.5156 1.96875,-2.4531 5.1875,-2.4531 1.9375,0 3.32813,0.7656 1.39062,0.7656 2.28125,2.3125 v -2.6563 h 2.875 z"
           style="font-size:32px;text-align:center;text-anchor:middle;fill:#ffffff"
           id="path50826" />
        <path
           d="m 352.46777,1951.2188 q 0,-3.1719 -1.3125,-4.9688 -1.29687,-1.8125 -3.57812,-1.8125 -2.28125,0 -3.59375,1.8125 -1.29688,1.7969 -1.29688,4.9688 0,3.1718 1.29688,4.9843 1.3125,1.7969 3.59375,1.7969 2.28125,0 3.57812,-1.7969 1.3125,-1.8125 1.3125,-4.9843 z m -9.78125,-6.1094 q 0.90625,-1.5625 2.28125,-2.3125 1.39063,-0.7656 3.3125,-0.7656 3.1875,0 5.17188,2.5312 2,2.5313 2,6.6563 0,4.125 -2,6.6562 -1.98438,2.5313 -5.17188,2.5313 -1.92187,0 -3.3125,-0.75 -1.375,-0.7657 -2.28125,-2.3282 v 2.625 h -2.89062 v -24.3125 h 2.89062 z"
           style="font-size:32px;text-align:center;text-anchor:middle;fill:#ffffff"
           id="path50828" />
        <path
           d="m 375.18652,1950.4844 v 1.4062 h -13.21875 q 0.1875,2.9688 1.78125,4.5313 1.60938,1.5469 4.46875,1.5469 1.65625,0 3.20313,-0.4063 1.5625,-0.4062 3.09375,-1.2187 v 2.7187 q -1.54688,0.6563 -3.17188,1 -1.625,0.3438 -3.29687,0.3438 -4.1875,0 -6.64063,-2.4375 -2.4375,-2.4375 -2.4375,-6.5938 0,-4.2969 2.3125,-6.8125 2.32813,-2.5312 6.26563,-2.5312 3.53125,0 5.57812,2.2812 2.0625,2.2656 2.0625,6.1719 z m -2.875,-0.8438 q -0.0312,-2.3593 -1.32812,-3.7656 -1.28125,-1.4062 -3.40625,-1.4062 -2.40625,0 -3.85938,1.3593 -1.4375,1.3594 -1.65625,3.8282 z"
           style="font-size:32px;text-align:center;text-anchor:middle;fill:#ffffff"
           id="path50830" />
        <path
           d="m 391.4209,1945.1094 v -9.4688 h 2.875 v 24.3125 h -2.875 v -2.625 q -0.90625,1.5625 -2.29688,2.3282 -1.375,0.75 -3.3125,0.75 -3.17187,0 -5.17187,-2.5313 -1.98438,-2.5312 -1.98438,-6.6562 0,-4.125 1.98438,-6.6563 2,-2.5312 5.17187,-2.5312 1.9375,0 3.3125,0.7656 1.39063,0.75 2.29688,2.3125 z m -9.79688,6.1094 q 0,3.1718 1.29688,4.9843 1.3125,1.7969 3.59375,1.7969 2.28125,0 3.59375,-1.7969 1.3125,-1.8125 1.3125,-4.9843 0,-3.1719 -1.3125,-4.9688 -1.3125,-1.8125 -3.59375,-1.8125 -2.28125,0 -3.59375,1.8125 -1.29688,1.7969 -1.29688,4.9688 z"
           style="font-size:32px;text-align:center;text-anchor:middle;fill:#ffffff"
           id="path50832" />
      </g>
    </g>
  </g>
</svg>
