<?xml version="1.0" encoding="UTF-8" standalone="no"?>
<!-- Created with Inkscape (http://www.inkscape.org/) -->

<svg
   width="50mm"
   height="50mm"
   viewBox="0 0 50 50"
   version="1.1"
   id="svg1"
   inkscape:version="1.3 (0e150ed, 2023-07-21)"
   sodipodi:docname="embeddings.svg"
   xmlns:inkscape="http://www.inkscape.org/namespaces/inkscape"
   xmlns:sodipodi="http://sodipodi.sourceforge.net/DTD/sodipodi-0.dtd"
   xmlns="http://www.w3.org/2000/svg"
   xmlns:svg="http://www.w3.org/2000/svg">
  <sodipodi:namedview
     id="namedview1"
     pagecolor="#ffffff"
     bordercolor="#000000"
     borderopacity="0.25"
     inkscape:showpageshadow="2"
     inkscape:pageopacity="0.0"
     inkscape:pagecheckerboard="0"
     inkscape:deskcolor="#d1d1d1"
     inkscape:document-units="mm"
     inkscape:zoom="0.89958333"
     inkscape:cx="158.96248"
     inkscape:cy="560.81519"
     inkscape:window-width="1392"
     inkscape:window-height="1246"
     inkscape:window-x="0"
     inkscape:window-y="730"
     inkscape:window-maximized="0"
     inkscape:current-layer="layer1" />
  <defs
     id="defs1" />
  <g
     inkscape:label="Layer 1"
     inkscape:groupmode="layer"
     id="layer1">
    <g
       style="fill:#000000;fill-opacity:1"
       id="g4715"
       transform="matrix(-1.50007,0,0,1.50007,204.3765,-510.9668)">
      <path
         id="path4717"
         d="m 135.10109,355.61138 c 0,-1.49613 -1.2156,-2.71173 -2.66498,-2.71173 -0.46754,-1.30911 -1.16885,-2.47796 -2.01042,-3.60006 0.42079,-0.56105 0.65456,-1.26236 0.65456,-2.05718 0,-1.96367 -1.58964,-3.5533 -3.55331,-3.5533 -1.07534,0 -2.05718,0.51429 -2.71173,1.26236 -1.16885,-0.46754 -2.43121,-0.84158 -3.74032,-0.98184 -0.32728,-0.88832 -1.16885,-1.54288 -2.15069,-1.54288 -1.07534,0 -1.96366,0.74806 -2.19743,1.7299 -2.71174,0.56105 -5.09619,1.91691 -6.96635,3.83383 -0.37403,-0.18702 -0.79482,-0.28053 -1.21561,-0.28053 -1.49612,0 -2.71173,1.21561 -2.71173,2.71174 0,0.84157 0.37403,1.58963 0.98184,2.05717 -0.65456,1.58964 -0.98184,3.31954 -0.98184,5.14294 0,0.56105 0.0468,1.07534 0.0935,1.58964 -1.1221,0.6078 -1.87016,1.77665 -1.87016,3.13252 0,1.96367 1.58964,3.5533 3.5533,3.5533 0.32728,0 0.60781,-0.0467 0.88833,-0.14026 1.02859,1.40262 2.3377,2.61822 3.83383,3.5533 -0.0468,0.18702 -0.0935,0.37404 -0.0935,0.56105 0,1.26236 1.02859,2.29095 2.29095,2.29095 0.84157,0 1.54288,-0.46754 1.96367,-1.1221 0.98183,0.23377 2.01042,0.37403 3.08576,0.37403 2.01042,0 3.88058,-0.42078 5.56373,-1.16885 0.51429,0.60781 1.26235,0.98184 2.15068,0.98184 1.58964,0 2.852,-1.26236 2.852,-2.852 0,-0.51429 -0.14027,-1.02858 -0.37404,-1.44937 2.10393,-2.3377 3.4598,-5.37671 3.55331,-8.743 0.98183,-0.37403 1.77665,-1.35587 1.77665,-2.57147 z m -24.12507,5.93776 c 1.35587,-0.6078 2.99226,-1.26236 4.72216,-1.87016 l -0.84158,4.62865 -3.88058,-1.07535 c 0.0468,-0.28052 0.0935,-0.56104 0.0935,-0.84157 0.0467,-0.28052 0,-0.56105 -0.0935,-0.84157 z m 4.72216,5.04943 0.14026,-0.74806 0.28052,0.0935 -0.42078,0.65455 z m 0.32727,-1.96367 0.93509,-5.2832 1.87016,1.77665 -2.10393,3.69357 z m 8.08845,-16.41065 c 0.18701,0.70131 0.6078,1.30911 1.16885,1.77665 l -1.77665,3.08576 -1.07535,-0.23377 -1.44937,-4.06759 z m 5.84425,6.26503 -5.23645,-1.12209 1.58964,-2.75849 c 0.37403,0.14026 0.79481,0.23377 1.2156,0.23377 0.74806,0 1.44938,-0.23377 2.01042,-0.65455 0.70131,0.88832 1.26236,1.91691 1.63639,2.99225 -0.51429,0.28053 -0.98183,0.74807 -1.2156,1.30911 z m -4.30137,11.54824 -5.2832,-5.09618 1.8234,-3.13252 c 0.23377,-0.0468 0.42079,-0.0935 0.65456,-0.14026 l 2.9455,8.27546 c -0.0467,0.0468 -0.0935,0.0468 -0.14026,0.0935 z m -8.55598,-14.30672 -5.47022,-1.16885 5.891,-1.07534 z m 0.98183,1.44937 3.41304,0.74807 0.56105,1.63639 -0.70131,1.2156 c -0.98183,0.23377 -1.91691,0.46754 -2.85199,0.70131 -0.42079,0.14026 -0.88833,0.28052 -1.30911,0.42079 z m 0.79482,5.47022 c 0.56105,-0.14026 1.07534,-0.32728 1.68314,-0.46754 l -1.12209,1.91691 -1.30911,-1.2156 c 0.28052,-0.0935 0.51429,-0.18702 0.74806,-0.23377 z m 4.53514,-2.99226 0.70131,-1.2156 4.62864,0.98183 c -1.49612,0.18702 -3.27278,0.46754 -5.09618,0.84158 z m -2.38446,-3.08576 -2.75848,-0.6078 0.46754,-2.75849 1.02859,-0.18701 z m -2.05717,-4.62865 0.14026,-0.79482 0.23377,0.70131 -0.37403,0.0935 z m -1.02859,-1.07534 -0.23377,1.30911 -6.68582,1.21561 c -0.0935,-0.18702 -0.18702,-0.37403 -0.32728,-0.56105 1.63639,-1.63639 3.74032,-2.80524 6.07802,-3.36629 0.18702,0.65456 0.6078,1.1221 1.16885,1.40262 z m -6.96635,4.76891 5.93776,1.26236 -0.70131,4.0676 -5.37671,-5.09619 c 0.0467,-0.0935 0.0935,-0.14026 0.14026,-0.23377 z m 8.743,10.37939 5.09619,4.86242 c -0.0468,0.0467 -0.0468,0.0935 -0.0935,0.18701 l -6.82608,-1.87016 1.8234,-3.17927 z m 7.5274,3.50655 c -0.14027,0 -0.23377,0 -0.37404,0.0467 l -2.85199,-8.13519 c 2.15068,-0.42079 4.25461,-0.70131 5.7975,-0.88833 0.32728,0.93508 1.16885,1.63639 2.19744,1.77665 -0.14027,2.9455 -1.30912,5.65724 -3.17928,7.76117 -0.42078,-0.37403 -0.98183,-0.56105 -1.58963,-0.56105 z m -3.22603,-18.51459 -3.41304,0.6078 -0.37403,-0.93508 c 0.46754,-0.32727 0.79481,-0.84157 0.93508,-1.40262 1.07534,0.14027 2.10393,0.42079 3.03901,0.79482 -0.0935,0.32728 -0.18702,0.6078 -0.18702,0.93508 z m -17.01846,10.70667 c 0,-1.63639 0.32728,-3.17927 0.88833,-4.58189 0.18701,0.0467 0.42078,0.0935 0.65455,0.0935 0.56105,0 1.07535,-0.18702 1.49613,-0.46754 l 5.84425,5.61048 c -1.96367,0.70131 -3.83383,1.44937 -5.37671,2.10393 -0.65455,-0.93508 -1.7299,-1.58964 -2.9455,-1.58964 -0.18702,0 -0.32728,0 -0.51429,0.0467 0,-0.42078 -0.0468,-0.79481 -0.0468,-1.2156 z m 2.57147,7.57415 c 0.37403,-0.23377 0.65456,-0.56105 0.93508,-0.93508 l 4.16111,1.16885 -0.37403,2.10393 c -0.56105,0.0467 -1.07535,0.28052 -1.44938,0.65456 -1.26236,-0.79482 -2.3377,-1.77666 -3.27278,-2.99226 z m 9.95861,4.95592 c -0.93508,0 -1.87016,-0.0935 -2.75849,-0.32727 0,0 0,0 0,-0.0468 0,-0.6078 -0.23377,-1.2156 -0.65456,-1.58963 l 1.16885,-2.05718 7.15337,2.01042 c 0,0.0468 0,0.0935 0,0.14026 0,0.28053 0.0468,0.56105 0.14026,0.79482 -1.58964,0.70131 -3.27278,1.07534 -5.04943,1.07534 z"
         inkscape:connector-curvature="0"
         style="fill:#000000;fill-opacity:1" />
    </g>
  </g>
</svg>
