<?xml version="1.0" encoding="UTF-8" standalone="no"?>
<!-- Created with Inkscape (http://www.inkscape.org/) -->

<svg
   width="45mm"
   height="58mm"
   viewBox="0 0 45 58"
   version="1.1"
   id="svg1"
   inkscape:version="1.3 (0e150ed, 2023-07-21)"
   sodipodi:docname="wig.svg"
   xmlns:inkscape="http://www.inkscape.org/namespaces/inkscape"
   xmlns:sodipodi="http://sodipodi.sourceforge.net/DTD/sodipodi-0.dtd"
   xmlns="http://www.w3.org/2000/svg"
   xmlns:svg="http://www.w3.org/2000/svg">
  <sodipodi:namedview
     id="namedview1"
     pagecolor="#ffffff"
     bordercolor="#000000"
     borderopacity="0.25"
     inkscape:showpageshadow="2"
     inkscape:pageopacity="0.0"
     inkscape:pagecheckerboard="0"
     inkscape:deskcolor="#d1d1d1"
     inkscape:document-units="mm"
     inkscape:zoom="0.60865649"
     inkscape:cx="506.85404"
     inkscape:cy="855.98364"
     inkscape:window-width="1280"
     inkscape:window-height="1387"
     inkscape:window-x="1280"
     inkscape:window-y="730"
     inkscape:window-maximized="0"
     inkscape:current-layer="layer1" />
  <defs
     id="defs1" />
  <g
     inkscape:label="Layer 1"
     inkscape:groupmode="layer"
     id="layer1">
    <g
       id="g3"
       transform="translate(-0.1303666,-54.519304)">
      <g
         id="g9476-6-9"
         transform="matrix(1.5072906,4.2376852e-8,-6.6434131e-8,1.4974039,-6.0357455,63.21856)">
        <path
           id="path9459-8-3"
           d="m 31.863437,4.3238523 -7.66673,-7.7084535 A 4.0055504,4.027275 1.5528537e-8 0 0 21.364508,-4.563995 H 11.007845 A 6.0078449,6.0404293 1.5526399e-8 0 0 5.0000001,1.4764343 V 25.638151 a 6.0078449,6.0404293 1.5526399e-8 0 0 6.0078449,6.04043 h 16.02092 a 6.0078449,6.0404293 1.5526399e-8 0 0 6.007846,-6.040429 V 7.1714114 A 4.0048695,4.0265904 1.5529351e-8 0 0 31.863437,4.3238523 Z m -8.839902,-6.0405501 7.180876,7.220085 H 25.02615 A 2.0049179,2.0157919 1.5519886e-8 0 1 23.023535,3.4899107 Z m 8.01046,27.3548498 a 4.009836,4.0315839 1.5526196e-8 0 1 -4.00523,4.026953 h -16.02092 a 4.009836,4.0315839 1.5526196e-8 0 1 -4.00523,-4.026954 l 1e-7,-24.1617167 A 4.0097558,4.0315034 1.5521463e-8 0 1 11.007845,-2.5505186 H 21.02092 v 6.0404293 a 4.0052299,4.0269529 1.5522074e-8 0 0 4.00523,4.0269529 h 6.007845 z"
           inkscape:connector-curvature="0"
           style="fill:#000000;fill-opacity:1;stroke:#ffffff;stroke-width:1.00976;stroke-linecap:square;stroke-miterlimit:4;stroke-dasharray:none;stroke-opacity:1;paint-order:markers fill stroke" />
      </g>
      <rect
         style="fill:#782121;fill-opacity:1;stroke:none;stroke-width:0.573806;stroke-miterlimit:10;stroke-dasharray:1.72142, 2.86903;stroke-dashoffset:0;stroke-opacity:1"
         id="rect9489-3-6"
         width="34.542446"
         height="9.8285913"
         x="5.3757448"
         y="94.976471" />
      <g
         id="g9564-5-0"
         transform="matrix(-0.00871426,-1.0323959,1.0035971,-0.00896434,-94.371901,230.09816)">
        <g
           transform="matrix(0.64288412,-0.00310086,-0.00310086,0.99997308,51.027162,0.22795525)"
           id="g9487-8-5">
          <rect
             style="fill:#000000;fill-opacity:1;stroke:none;stroke-width:0.529167;stroke-miterlimit:10;stroke-dasharray:1.5875, 2.64583;stroke-dashoffset:0;stroke-opacity:1"
             id="rect9478-8-0"
             width="8.174119"
             height="3.0115175"
             x="102.54849"
             y="-153.24789"
             transform="rotate(90.497491)" />
          <rect
             transform="rotate(90.497491)"
             y="-153.24789"
             x="112.65859"
             height="3.0115175"
             width="8.174119"
             id="rect9480-7-2"
             style="fill:#000000;fill-opacity:1;stroke:none;stroke-width:0.529167;stroke-miterlimit:10;stroke-dasharray:1.5875, 2.64583;stroke-dashoffset:0;stroke-opacity:1" />
          <rect
             style="fill:#000000;fill-opacity:1;stroke:none;stroke-width:0.529167;stroke-miterlimit:10;stroke-dasharray:1.5875, 2.64583;stroke-dashoffset:0;stroke-opacity:1"
             id="rect9482-2-9"
             width="8.174119"
             height="3.0115175"
             x="122.76869"
             y="-153.24789"
             transform="rotate(90.497491)" />
        </g>
        <g
           id="g9506-3-43"
           transform="matrix(0.64288412,-0.00310086,-0.00310086,0.99997308,48.101797,0.20255414)">
          <rect
             transform="rotate(90.497491)"
             y="-153.24789"
             x="102.54849"
             height="3.0115175"
             width="8.174119"
             id="rect9500-4-5"
             style="fill:#000000;fill-opacity:1;stroke:none;stroke-width:0.529167;stroke-miterlimit:10;stroke-dasharray:1.5875, 2.64583;stroke-dashoffset:0;stroke-opacity:1" />
          <rect
             style="fill:#000000;fill-opacity:1;stroke:none;stroke-width:0.529167;stroke-miterlimit:10;stroke-dasharray:1.5875, 2.64583;stroke-dashoffset:0;stroke-opacity:1"
             id="rect9502-7-1"
             width="8.174119"
             height="3.0115175"
             x="112.65859"
             y="-153.24789"
             transform="rotate(90.497491)" />
          <rect
             transform="rotate(90.497491)"
             y="-153.24789"
             x="122.76869"
             height="3.0115175"
             width="8.174119"
             id="rect9504-5-7"
             style="fill:#000000;fill-opacity:1;stroke:none;stroke-width:0.529167;stroke-miterlimit:10;stroke-dasharray:1.5875, 2.64583;stroke-dashoffset:0;stroke-opacity:1" />
        </g>
        <g
           transform="matrix(0.64288412,-0.00310086,-0.00310086,0.99997308,45.176431,0.17715302)"
           id="g9514-1-4">
          <rect
             style="fill:#000000;fill-opacity:1;stroke:none;stroke-width:0.529167;stroke-miterlimit:10;stroke-dasharray:1.5875, 2.64583;stroke-dashoffset:0;stroke-opacity:1"
             id="rect9508-0-3"
             width="8.174119"
             height="3.0115175"
             x="102.54849"
             y="-153.24789"
             transform="rotate(90.497491)" />
          <rect
             transform="rotate(90.497491)"
             y="-153.24789"
             x="112.65859"
             height="3.0115175"
             width="8.174119"
             id="rect9510-9-1"
             style="fill:#000000;fill-opacity:1;stroke:none;stroke-width:0.529167;stroke-miterlimit:10;stroke-dasharray:1.5875, 2.64583;stroke-dashoffset:0;stroke-opacity:1" />
          <rect
             style="fill:#000000;fill-opacity:1;stroke:none;stroke-width:0.529167;stroke-miterlimit:10;stroke-dasharray:1.5875, 2.64583;stroke-dashoffset:0;stroke-opacity:1"
             id="rect9512-6-4"
             width="8.174119"
             height="3.0115175"
             x="122.76869"
             y="-153.24789"
             transform="rotate(90.497491)" />
        </g>
        <g
           id="g9522-5-69"
           transform="matrix(0.64288412,-0.00310086,-0.00310086,0.99997308,42.251066,0.15175192)">
          <rect
             transform="rotate(90.497491)"
             y="-153.24789"
             x="102.54849"
             height="3.0115175"
             width="8.174119"
             id="rect9516-0-4"
             style="fill:#000000;fill-opacity:1;stroke:none;stroke-width:0.529167;stroke-miterlimit:10;stroke-dasharray:1.5875, 2.64583;stroke-dashoffset:0;stroke-opacity:1" />
          <rect
             style="fill:#000000;fill-opacity:1;stroke:none;stroke-width:0.529167;stroke-miterlimit:10;stroke-dasharray:1.5875, 2.64583;stroke-dashoffset:0;stroke-opacity:1"
             id="rect9518-8-2"
             width="8.174119"
             height="3.0115175"
             x="112.65859"
             y="-153.24789"
             transform="rotate(90.497491)" />
          <rect
             transform="rotate(90.497491)"
             y="-153.24789"
             x="122.76869"
             height="3.0115175"
             width="8.174119"
             id="rect9520-8-2"
             style="fill:#000000;fill-opacity:1;stroke:none;stroke-width:0.529167;stroke-miterlimit:10;stroke-dasharray:1.5875, 2.64583;stroke-dashoffset:0;stroke-opacity:1" />
        </g>
        <g
           transform="matrix(0.64288412,-0.00310086,-0.00310086,0.99997308,39.325701,0.12635081)"
           id="g9530-4-64">
          <rect
             style="fill:#000000;fill-opacity:1;stroke:none;stroke-width:0.529167;stroke-miterlimit:10;stroke-dasharray:1.5875, 2.64583;stroke-dashoffset:0;stroke-opacity:1"
             id="rect9524-3-1"
             width="8.174119"
             height="3.0115175"
             x="102.54849"
             y="-153.24789"
             transform="rotate(90.497491)" />
          <rect
             transform="rotate(90.497491)"
             y="-153.24789"
             x="112.65859"
             height="3.0115175"
             width="8.174119"
             id="rect9526-0-28"
             style="fill:#000000;fill-opacity:1;stroke:none;stroke-width:0.529167;stroke-miterlimit:10;stroke-dasharray:1.5875, 2.64583;stroke-dashoffset:0;stroke-opacity:1" />
          <rect
             style="fill:#000000;fill-opacity:1;stroke:none;stroke-width:0.529167;stroke-miterlimit:10;stroke-dasharray:1.5875, 2.64583;stroke-dashoffset:0;stroke-opacity:1"
             id="rect9528-8-8"
             width="8.174119"
             height="3.0115175"
             x="122.76869"
             y="-153.24789"
             transform="rotate(90.497491)" />
        </g>
        <g
           id="g9538-2-92"
           transform="matrix(0.64288412,-0.00310086,-0.00310086,0.99997308,36.400336,0.10094969)">
          <rect
             transform="rotate(90.497491)"
             y="-153.24789"
             x="102.54849"
             height="3.0115175"
             width="8.174119"
             id="rect9532-5-8"
             style="fill:#000000;fill-opacity:1;stroke:none;stroke-width:0.529167;stroke-miterlimit:10;stroke-dasharray:1.5875, 2.64583;stroke-dashoffset:0;stroke-opacity:1" />
          <rect
             style="fill:#000000;fill-opacity:1;stroke:none;stroke-width:0.529167;stroke-miterlimit:10;stroke-dasharray:1.5875, 2.64583;stroke-dashoffset:0;stroke-opacity:1"
             id="rect9534-7-8"
             width="8.174119"
             height="3.0115175"
             x="112.65859"
             y="-153.24789"
             transform="rotate(90.497491)" />
          <rect
             transform="rotate(90.497491)"
             y="-153.24789"
             x="122.76869"
             height="3.0115175"
             width="8.174119"
             id="rect9536-1-8"
             style="fill:#000000;fill-opacity:1;stroke:none;stroke-width:0.529167;stroke-miterlimit:10;stroke-dasharray:1.5875, 2.64583;stroke-dashoffset:0;stroke-opacity:1" />
        </g>
      </g>
      <g
         aria-label=".wig"
         transform="matrix(0.26458333,0,0,0.26458333,-66.589108,-416.13866)"
         style="font-style:normal;font-weight:normal;font-size:32px;line-height:1.25;font-family:sans-serif;text-align:center;letter-spacing:0px;word-spacing:0px;text-anchor:middle;fill:#000000;fill-opacity:1;stroke:none"
         id="flowRoot20943-6">
        <path
           d="m 307.85059,1955.9844 h 3.29687 v 3.9687 h -3.29687 z"
           style="font-size:32px;text-align:center;text-anchor:middle;fill:#ffffff"
           id="path50811" />
        <path
           d="m 315.94434,1942.4531 h 2.875 l 3.59375,13.6563 3.57812,-13.6563 h 3.39063 l 3.59375,13.6563 3.57812,-13.6563 h 2.875 l -4.57812,17.5 h -3.39063 l -3.76562,-14.3437 -3.78125,14.3437 h -3.39063 z"
           style="font-size:32px;text-align:center;text-anchor:middle;fill:#ffffff"
           id="path50813" />
        <path
           d="m 343.78809,1942.4531 h 2.875 v 17.5 h -2.875 z m 0,-6.8125 h 2.875 v 3.6407 h -2.875 z"
           style="font-size:32px;text-align:center;text-anchor:middle;fill:#ffffff"
           id="path50815" />
        <path
           d="m 364.19434,1951 q 0,-3.125 -1.29688,-4.8437 -1.28125,-1.7188 -3.60937,-1.7188 -2.3125,0 -3.60938,1.7188 -1.28125,1.7187 -1.28125,4.8437 0,3.1094 1.28125,4.8281 1.29688,1.7188 3.60938,1.7188 2.32812,0 3.60937,-1.7188 1.29688,-1.7187 1.29688,-4.8281 z m 2.875,6.7813 q 0,4.4687 -1.98438,6.6406 -1.98437,2.1875 -6.07812,2.1875 -1.51563,0 -2.85938,-0.2344 -1.34375,-0.2187 -2.60937,-0.6875 v -2.7969 q 1.26562,0.6875 2.5,1.0157 1.23437,0.3281 2.51562,0.3281 2.82813,0 4.23438,-1.4844 1.40625,-1.4687 1.40625,-4.4531 v -1.4219 q -0.89063,1.5469 -2.28125,2.3125 -1.39063,0.7656 -3.32813,0.7656 -3.21875,0 -5.1875,-2.4531 -1.96875,-2.4531 -1.96875,-6.5 0,-4.0625 1.96875,-6.5156 1.96875,-2.4531 5.1875,-2.4531 1.9375,0 3.32813,0.7656 1.39062,0.7656 2.28125,2.3125 v -2.6563 h 2.875 z"
           style="font-size:32px;text-align:center;text-anchor:middle;fill:#ffffff"
           id="path50817" />
      </g>
    </g>
  </g>
</svg>
